<?xml version="1.0" encoding="UTF-8"?>
<svg version="1.1" xmlns="http://www.w3.org/2000/svg" width="188" height="225">
<path d="M0 0 C2.95239258 1.34423828 2.95239258 1.34423828 5.89453125 3.0703125 C7.00119141 3.71154053 8.10785156 4.35276855 9.24804688 5.01342773 C10.43632767 5.71706608 11.62447518 6.42092955 12.8125 7.125 C14.06121809 7.85402762 15.31057858 8.58195591 16.56054688 9.30883789 C19.12890157 10.80403867 21.69378093 12.30496141 24.25634766 13.81005859 C28.76113369 16.45160322 33.29596589 19.03953146 37.8371582 21.61791992 C39.95452081 22.83603675 42.0586578 24.07742207 44.14916992 25.34106445 C49.2736824 28.42330972 54.30331753 31.20651388 59.84880066 33.43106079 C77.55000575 40.60012101 77.55000575 40.60012101 82 48 C84.51168615 54.9422816 84.5932487 62.25906656 84.5625 69.5625 C84.57485687 70.97494492 84.57485687 70.97494492 84.58746338 72.41592407 C84.49858134 87.39417483 84.49858134 87.39417483 79.25268555 92.86523438 C75.91653883 94.94473241 72.62973224 96.50124651 69 98 C67.36325865 98.9179534 65.73986842 99.86050334 64.13671875 100.8359375 C62.65437668 101.68357105 61.17130354 102.52992739 59.6875 103.375 C52.64269715 107.41030311 45.72026411 111.59981303 38.89916992 116.00341797 C34.20852181 119 34.20852181 119 32 119 C32.00444122 119.70743851 32.00888245 120.41487701 32.01345825 121.14375305 C32.0535248 127.80921379 32.08397919 134.47464095 32.10362434 141.14019489 C32.11406363 144.56706693 32.12822532 147.9938395 32.15087891 151.4206543 C32.17675686 155.35985119 32.18647162 159.29900774 32.1953125 163.23828125 C32.20563507 164.46960281 32.21595764 165.70092438 32.22659302 166.96955872 C32.22674408 168.11051498 32.22689514 169.25147125 32.22705078 170.42700195 C32.231492 171.432939 32.23593323 172.43887604 32.24050903 173.47529602 C32 176 32 176 30 179 C24.64716711 178.50705957 20.97836403 177.21808921 16.33203125 174.54296875 C15.72993332 174.19873367 15.12783539 173.8544986 14.50749207 173.49983215 C13.24480478 172.77472673 11.98524888 172.04414317 10.72875977 171.30834961 C8.81437445 170.18859639 6.8897961 169.0882736 4.96289062 167.99023438 C-6.19940244 161.55194675 -6.19940244 161.55194675 -9 158 C-9.45410156 155.61816406 -9.45410156 155.61816406 -9.390625 153.015625 C-9.37128906 151.61376953 -9.37128906 151.61376953 -9.3515625 150.18359375 C-9.31804687 149.21550781 -9.28453125 148.24742187 -9.25 147.25 C-9.23195313 146.26644531 -9.21390625 145.28289062 -9.1953125 144.26953125 C-9.14824126 141.84536217 -9.08250742 139.42317941 -9 137 C-9.70286133 136.740979 -10.40572266 136.48195801 -11.12988281 136.21508789 C-14.24829246 134.89488333 -17.02166137 133.30641224 -19.921875 131.55859375 C-21.02917969 130.89279297 -22.13648438 130.22699219 -23.27734375 129.54101562 C-24.13175049 129.02341675 -24.13175049 129.02341675 -25.00341797 128.49536133 C-26.75639023 127.4336296 -28.51265308 126.37751904 -30.26953125 125.32226562 C-38.85278212 120.14721788 -38.85278212 120.14721788 -40 119 C-40.3359375 116.6328125 -40.3359375 116.6328125 -40 114 C-38.2265625 112.3671875 -38.2265625 112.3671875 -35.625 110.875 C-34.64015625 110.29234375 -33.6553125 109.7096875 -32.640625 109.109375 C-32.07537109 108.78388672 -31.51011719 108.45839844 -30.92773438 108.12304688 C-27.86853567 106.34083892 -24.85595458 104.48326519 -21.83740234 102.63330078 C-20.20459047 101.63315089 -18.56951532 100.63668598 -16.93212891 99.64404297 C-16.17851074 99.18658691 -15.42489258 98.72913086 -14.6484375 98.2578125 C-13.96958496 97.8467627 -13.29073242 97.43571289 -12.59130859 97.01220703 C-11.02338388 96.09575865 -11.02338388 96.09575865 -10 95 C-9.86465267 92.44343927 -9.789467 89.91004977 -9.75390625 87.3515625 C-9.72096518 85.77343201 -9.68775358 84.19530714 -9.65429688 82.6171875 C-9.60687561 80.11983153 -9.56246066 77.62249799 -9.52319336 75.125 C-9.483493 72.72110759 -9.43193929 70.31769252 -9.37890625 67.9140625 C-9.3704921 67.16710114 -9.36207794 66.42013977 -9.35340881 65.65054321 C-9.26420745 61.91315443 -9.12465172 60.18697758 -7 57 C-1.94680945 57.49168734 1.54720314 58.52576943 5.8984375 61.125 C6.95417969 61.74890625 8.00992188 62.3728125 9.09765625 63.015625 C10.17917969 63.67046875 11.26070312 64.3253125 12.375 65 C14.03208984 65.98226562 14.03208984 65.98226562 15.72265625 66.984375 C23.78276976 71.78276976 23.78276976 71.78276976 25 73 C29.22032739 73.46892527 31.6102211 72.51812147 35 70 C35 69.34 35 68.68 35 68 C33.89785156 67.39414063 32.79570313 66.78828125 31.66015625 66.1640625 C18.85276214 59.10056471 6.16615578 51.8591305 -6.25 44.125 C-12.94816703 39.9651751 -19.79886882 36.08288494 -26.66699219 32.21142578 C-39.72597144 24.82208567 -39.72597144 24.82208567 -41 21 C-38.26816768 16.65583902 -34.97804786 14.52285581 -30.5546875 12.046875 C-29.94360138 11.70118469 -29.33251526 11.35549438 -28.70291138 10.99932861 C-26.76558739 9.90642839 -24.82056943 8.82813959 -22.875 7.75 C-21.56066901 7.011357 -20.24686115 6.27178235 -18.93359375 5.53125 C-6.70170578 -1.35056876 -6.70170578 -1.35056876 0 0 Z M-10.125 10.1171875 C-10.91390625 10.55933594 -11.7028125 11.00148438 -12.515625 11.45703125 C-13.74539062 12.15892578 -13.74539062 12.15892578 -15 12.875 C-16.22976562 13.56529297 -16.22976562 13.56529297 -17.484375 14.26953125 C-20.72907689 16.09865241 -23.89908459 17.93272306 -27 20 C-27 20.66 -27 21.32 -27 22 C-25.87464844 22.61746094 -24.74929687 23.23492187 -23.58984375 23.87109375 C-16.22175633 27.92972433 -8.8774521 32.00684068 -1.6875 36.375 C5.11409556 40.50582647 11.99212484 44.49451871 18.93823242 48.37792969 C23.4624358 50.91774704 27.86775659 53.53411327 32.1796875 56.421875 C40.06171703 62.13972847 40.06171703 62.13972847 49.20703125 63.59375 C52.15380039 62.00864958 54.45070288 60.16303998 57 58 C59.20828783 56.67295379 61.43783583 55.38062651 63.6875 54.125 C65.45925861 53.08490791 67.23043821 52.04382528 69 51 C66.26633381 48.06022717 63.69019316 46.07220439 60.1484375 44.1953125 C59.21386719 43.69386719 58.27929688 43.19242188 57.31640625 42.67578125 C56.34574219 42.16402344 55.37507813 41.65226562 54.375 41.125 C47.97400202 37.71984325 41.6574311 34.24843661 35.4609375 30.48242188 C31.29085809 27.97044547 27.04791707 25.58706612 22.8125 23.1875 C15.63771765 19.11646588 8.51543244 14.98122616 1.53051758 10.59057617 C-3.16305998 7.69977599 -5.36011113 7.42626348 -10.125 10.1171875 Z M66.875 61.125 C60.33841758 65.23721617 53.68005276 69.1261771 47 73 C40.80620089 76.5943339 34.62290742 80.18449248 28.5625 84 C16.37805356 91.58684865 3.66948303 98.36066647 -8.921875 105.2421875 C-9.83445068 105.74129639 -10.74702637 106.24040527 -11.68725586 106.75463867 C-13.39204111 107.68511246 -15.09849458 108.61253866 -16.80688477 109.53637695 C-22.17353808 112.36835432 -22.17353808 112.36835432 -27 116 C-27 116.66 -27 117.32 -27 118 C-26.5059668 118.25692627 -26.01193359 118.51385254 -25.50292969 118.77856445 C-23.25001235 119.95286194 -20.99999953 121.1326222 -18.75 122.3125 C-17.97269531 122.71662109 -17.19539063 123.12074219 -16.39453125 123.53710938 C-10.33356238 126.72300327 -10.33356238 126.72300327 -7.765625 128.85546875 C-6.01944261 130.25430187 -6.01944261 130.25430187 -3.66503906 129.72412109 C-0.94336833 128.98461254 1.0082467 128.02766231 3.40625 126.55859375 C4.22617432 126.06117676 5.04609863 125.56375977 5.89086914 125.05126953 C7.18238892 124.25245361 7.18238892 124.25245361 8.5 123.4375 C9.39130615 122.89464355 10.2826123 122.35178711 11.20092773 121.79248047 C17.08464747 118.20322532 22.94962495 114.58115391 28.78515625 110.9140625 C32.48080428 108.71373743 36.24645149 106.66814883 40.02758789 104.61914062 C44.94240105 101.94192988 49.81460383 99.19005412 54.6875 96.4375 C55.66783203 95.88642578 56.64816406 95.33535156 57.65820312 94.76757812 C59.56920383 93.68856031 61.47121787 92.59343335 63.36279297 91.48071289 C66 90 66 90 68.46923828 88.97045898 C70.88813134 87.86378463 72.32109344 87.07414734 74 85 C74.97885737 80.36177571 74.75357025 75.90049315 74.5 71.1875 C74.46390625 69.92228516 74.4278125 68.65707031 74.390625 67.35351562 C74.29640876 64.23260256 74.16498197 61.11784192 74 58 C71.00884193 58 69.39491746 59.5189726 66.875 61.125 Z M0 70 C0 76.6 0 83.2 0 90 C4.02889799 88.38844081 7.55809438 86.69412224 11.3125 84.5625 C12.91544922 83.66724609 12.91544922 83.66724609 14.55078125 82.75390625 C15.35902344 82.17511719 16.16726562 81.59632812 17 81 C17 80.01 17 79.02 17 78 C14.73354942 76.65869239 12.46239903 75.32683766 10.1875 74 C9.22360352 73.42765625 9.22360352 73.42765625 8.24023438 72.84375 C4.37934476 70.56815731 4.37934476 70.56815731 0 70 Z M17.01171875 126.4765625 C14.73943849 127.94513376 12.47644931 129.42360451 10.21875 130.9140625 C7 133 7 133 4.59375 134.0859375 C2.29549646 135.18796891 1.33348191 135.80502462 0 138 C-1.12137586 143.60687929 -1.1876589 148.39937324 0 154 C2.43428129 157.22601356 5.36207141 158.38710019 9 160 C11.15506772 161.27620006 13.30081944 162.56824844 15.4375 163.875 C18.99742143 166.2074724 18.99742143 166.2074724 23 167 C23.33 153.47 23.66 139.94 24 126 C20.07713646 124.56084882 20.07713646 124.56084882 17.01171875 126.4765625 Z " fill="#E6CC35" transform="translate(76,19)"/>
<path d="M0 0 C1.65 0 3.3 0 5 0 C5.061875 0.78375 5.12375 1.5675 5.1875 2.375 C5.455625 3.24125 5.72375 4.1075 6 5 C8.47636012 6.37466625 8.47636012 6.37466625 11 7 C11 7.66 11 8.32 11 9 C12.2375 9.1546875 12.2375 9.1546875 13.5 9.3125 C18.45057418 10.28493421 23.20549455 11.56439564 27.1875 14.75 C28.94174823 16.21289986 28.94174823 16.21289986 31.25 16 C33.71170783 15.10483351 35.24644202 14.2058968 37.375 12.75 C43.33051022 8.81776293 50.23935449 7.08513385 57 5 C57.99 4.67 58.98 4.34 60 4 C60 3.01 60 2.02 60 1 C63.465 0.505 63.465 0.505 67 0 C67 0.66 67 1.32 67 2 C69.475 1.505 69.475 1.505 72 1 C70.71034824 2.37562854 69.37310707 3.70766393 68 5 C67.34 5 66.68 5 66 5 C66.00222061 5.74946396 66.00444122 6.49892792 66.00672913 7.27110291 C66.02673179 14.31982291 66.041974 21.36853315 66.05181217 28.41727352 C66.05704002 32.0414596 66.06413587 35.6656223 66.07543945 39.28979492 C66.08627184 42.78459975 66.09227758 46.27938204 66.09487724 49.77420235 C66.09763551 51.76239389 66.10544688 53.75057631 66.11329651 55.73875427 C66.11337204 56.93992386 66.11344757 58.14109344 66.11352539 59.37866211 C66.115746 60.44233505 66.11796661 61.506008 66.12025452 62.60191345 C66 65 66 65 65 66 C59.64538454 65.62307829 55.9568289 64.20569038 51.33203125 61.54296875 C50.72993332 61.19873367 50.12783539 60.8544986 49.50749207 60.49983215 C48.24480478 59.77472673 46.98524888 59.04414317 45.72875977 58.30834961 C43.81437445 57.18859639 41.8897961 56.0882736 39.96289062 54.99023438 C28.80059756 48.55194675 28.80059756 48.55194675 26 45 C25.54589844 42.61816406 25.54589844 42.61816406 25.609375 40.015625 C25.62871094 38.61376953 25.62871094 38.61376953 25.6484375 37.18359375 C25.68195313 36.21550781 25.71546875 35.24742187 25.75 34.25 C25.76804687 33.26644531 25.78609375 32.28289062 25.8046875 31.26953125 C25.85175874 28.84536217 25.91749258 26.42317941 26 24 C24.87851563 23.56300781 24.87851563 23.56300781 23.734375 23.1171875 C20.19307917 21.6703152 17.21093435 20.09945708 14 18 C13.25 15.8125 13.25 15.8125 13 14 C12.01 13.67 11.02 13.34 10 13 C10 12.34 10 11.68 10 11 C8.63875 10.8453125 8.63875 10.8453125 7.25 10.6875 C3.91400609 9.98180898 2.53150464 9.18233159 0 7 C-0.99 6.34 -1.98 5.68 -3 5 C-3 4.01 -3 3.02 -3 2 C-2.01 2 -1.02 2 0 2 C0 1.34 0 0.68 0 0 Z M52.01171875 13.4765625 C49.73943849 14.94513376 47.47644931 16.42360451 45.21875 17.9140625 C42 20 42 20 39.59375 21.0859375 C37.29549646 22.18796891 36.33348191 22.80502462 35 25 C33.87862414 30.60687929 33.8123411 35.39937324 35 41 C37.43428129 44.22601356 40.36207141 45.38710019 44 47 C46.15506772 48.27620006 48.30081944 49.56824844 50.4375 50.875 C53.99742143 53.2074724 53.99742143 53.2074724 58 54 C58.33 40.47 58.66 26.94 59 13 C55.07713646 11.56084882 55.07713646 11.56084882 52.01171875 13.4765625 Z " fill="#B6A633" transform="translate(41,132)"/>
<path d="M0 0 C7.16589551 0.16286126 13.44287153 3.59262225 19 8 C19 9.32 19 10.64 19 12 C19.66 12.33 20.32 12.66 21 13 C19.68 13 18.36 13 17 13 C17.66 14.65 18.32 16.3 19 18 C14.96118589 16.40895202 10.99469722 14.71201309 7 13 C7 19.6 7 26.2 7 33 C11.52255104 30.33091395 11.52255104 30.33091395 16.03466797 27.64428711 C17.65610673 26.70235035 19.32762621 25.84821836 21 25 C21.66 25.33 22.32 25.66 23 26 C20.47211993 28.79872437 18.79588866 30.45773019 15 31 C15 31.99 15 32.98 15 34 C15.99 34.495 15.99 34.495 17 35 C16.505 35.99 16.505 35.99 16 37 C16.70084717 36.58637207 17.40169434 36.17274414 18.1237793 35.74658203 C21.30957459 33.86911128 24.49849201 31.99700814 27.6875 30.125 C28.79029297 29.47402344 29.89308594 28.82304688 31.02929688 28.15234375 C32.6293457 27.21455078 32.6293457 27.21455078 34.26171875 26.2578125 C35.24100342 25.6817627 36.22028809 25.10571289 37.22924805 24.51220703 C39.77449625 23.1230743 42.28532274 22.00960862 45 21 C42.18318256 24.02510612 39.415538 26.12443589 35.8359375 28.1796875 C34.80839355 28.77217285 33.78084961 29.3646582 32.72216797 29.97509766 C31.61760254 30.60206543 30.51303711 31.2290332 29.375 31.875 C28.23305176 32.52903809 27.09110352 33.18307617 25.91455078 33.85693359 C16.57669909 39.18671799 7.13203874 44.31145307 -2.36962891 49.34326172 C-12.44944651 53.82765113 -12.44944651 53.82765113 -20 61 C-19.113125 61.268125 -18.22625 61.53625 -17.3125 61.8125 C-14.23122452 62.91710819 -11.73778595 64.22849144 -9 66 C-11 67 -11 67 -14.125 66.0625 C-15.07375 65.711875 -16.0225 65.36125 -17 65 C-17 64.34 -17 63.68 -17 63 C-17.969375 62.731875 -18.93875 62.46375 -19.9375 62.1875 C-20.948125 61.795625 -21.95875 61.40375 -23 61 C-23.495 59.515 -23.495 59.515 -24 58 C-23.67 57.34 -23.34 56.68 -23 56 C-24.65 56 -26.3 56 -28 56 C-28 56.66 -28 57.32 -28 58 C-28.99 58 -29.98 58 -31 58 C-30.67 58.99 -30.34 59.98 -30 61 C-27.69631264 62.06652192 -25.35981813 63.06421005 -23 64 C-15.28571429 69.14285714 -15.28571429 69.14285714 -14 73 C-18.24122553 71.47730437 -21.95086673 69.32369719 -25.75 66.9375 C-26.33910156 66.57333984 -26.92820312 66.20917969 -27.53515625 65.83398438 C-31.84776311 63.15223689 -31.84776311 63.15223689 -33 62 C-33.3359375 59.6328125 -33.3359375 59.6328125 -33 57 C-31.2265625 55.3671875 -31.2265625 55.3671875 -28.625 53.875 C-27.64015625 53.29234375 -26.6553125 52.7096875 -25.640625 52.109375 C-25.07537109 51.78388672 -24.51011719 51.45839844 -23.92773438 51.12304688 C-20.86853567 49.34083892 -17.85595458 47.48326519 -14.83740234 45.63330078 C-13.20459047 44.63315089 -11.56951532 43.63668598 -9.93212891 42.64404297 C-9.17851074 42.18658691 -8.42489258 41.72913086 -7.6484375 41.2578125 C-6.96958496 40.8467627 -6.29073242 40.43571289 -5.59130859 40.01220703 C-4.02338388 39.09575865 -4.02338388 39.09575865 -3 38 C-2.86465267 35.44343927 -2.789467 32.91004977 -2.75390625 30.3515625 C-2.72096518 28.77343201 -2.68775358 27.19530714 -2.65429688 25.6171875 C-2.60687561 23.11983153 -2.56246066 20.62249799 -2.52319336 18.125 C-2.483493 15.72110759 -2.43193929 13.31769252 -2.37890625 10.9140625 C-2.3704921 10.16710114 -2.36207794 9.42013977 -2.35340881 8.65054321 C-2.26420745 4.91315443 -2.12465172 3.18697758 0 0 Z " fill="#BFAC2E" transform="translate(69,76)"/>
<path d="M0 0 C1.68272986 0.62501395 3.34630643 1.30177383 5 2 C5.86351074 2.3297583 6.72702148 2.6595166 7.61669922 2.99926758 C10.3273455 5.27479988 10.39998226 5.71612605 10.77392578 9.0690918 C10.86112843 10.7778645 10.91613771 12.48847117 10.9453125 14.19921875 C10.96906952 15.10823441 10.99282654 16.01725006 11.01730347 16.95381165 C11.05577218 18.87938192 11.08006937 20.80527947 11.09130859 22.73120117 C11.12473703 25.66442562 11.25385449 28.58349643 11.38671875 31.51367188 C11.70343057 45.11599542 11.70343057 45.11599542 7.35375977 49.92675781 C3.98274563 52.01403342 0.67979421 53.53587494 -3 55 C-4.63850961 55.91479338 -6.26227453 56.85699003 -7.86328125 57.8359375 C-9.34562332 58.68357105 -10.82869646 59.52992739 -12.3125 60.375 C-19.35730285 64.41030311 -26.27973589 68.59981303 -33.10083008 73.00341797 C-37.79147819 76 -37.79147819 76 -40 76 C-40 94.81 -40 113.62 -40 133 C-40.33 133 -40.66 133 -41 133 C-41.09265712 125.48967858 -41.16374292 117.97941636 -41.20724869 110.46865368 C-41.228129 106.98109444 -41.25645318 103.49392606 -41.30175781 100.0065918 C-41.35351062 95.99784583 -41.37294136 91.98951078 -41.390625 87.98046875 C-41.41127014 86.72727341 -41.43191528 85.47407806 -41.45318604 84.1829071 C-41.45348816 83.02193008 -41.45379028 81.86095306 -41.45410156 80.66479492 C-41.46298401 79.64109299 -41.47186646 78.61739105 -41.48101807 77.56266785 C-41 75 -41 75 -38.97161865 73.14595032 C-38.3209845 72.76778671 -37.67035034 72.38962311 -37 72 C-37.99 72 -38.98 72 -40 72 C-40 71.34 -40 70.68 -40 70 C-43.465 70.495 -43.465 70.495 -47 71 C-47 71.99 -47 72.98 -47 74 C-52.33931188 76.86034565 -57.07943568 78.73130765 -63 80 C-60.9113777 77.75965398 -58.87718504 76.19992345 -56.21875 74.6875 C-55.09460693 74.04276733 -55.09460693 74.04276733 -53.94775391 73.38500977 C-53.13999512 72.92795654 -52.33223633 72.47090332 -51.5 72 C-49.7681457 71.00926047 -48.03637718 70.01837098 -46.3046875 69.02734375 C-45.42006836 68.52315918 -44.53544922 68.01897461 -43.62402344 67.49951172 C-40.38663449 65.64948912 -37.16137444 63.77913788 -33.93774414 61.90527344 C-31.60849895 60.55291953 -29.27513858 59.20787401 -26.94140625 57.86328125 C-23.37106061 55.80310413 -19.82151849 53.71032433 -16.27734375 51.60546875 C-14.37249203 50.48681534 -12.46754614 49.36832228 -10.5625 48.25 C-9.66805176 47.71189697 -8.77360352 47.17379395 -7.85205078 46.61938477 C-6.59690674 45.88739868 -6.59690674 45.88739868 -5.31640625 45.140625 C-4.57849854 44.70266602 -3.84059082 44.26470703 -3.08032227 43.81347656 C-0.60738066 42.84647252 0.54605513 43.10110895 3 44 C3 44.99 3 45.98 3 47 C4.65 47 6.3 47 8 47 C8 33.14 8 19.28 8 5 C7.01 5.33 6.02 5.66 5 6 C5 5.34 5 4.68 5 4 C4.360625 3.896875 3.72125 3.79375 3.0625 3.6875 C2.381875 3.460625 1.70125 3.23375 1 3 C0.505 1.515 0.505 1.515 0 0 Z " fill="#B7AB3B" transform="translate(148,62)"/>
<path d="M0 0 C3.54434427 1.34455698 6.80799193 2.91228344 10.11328125 4.765625 C11.10231445 5.31911621 12.09134766 5.87260742 13.11035156 6.44287109 C14.16706055 7.03922363 15.22376953 7.63557617 16.3125 8.25 C17.41174805 8.8682666 18.51099609 9.4865332 19.64355469 10.12353516 C35.5958837 19.12374361 51.49298616 28.24754208 67 38 C66.01 38.495 66.01 38.495 65 39 C62.57034815 37.97218364 60.2762448 36.89301452 57.9375 35.6875 C57.28716797 35.36587891 56.63683594 35.04425781 55.96679688 34.71289062 C51.13119011 32.26238023 51.13119011 32.26238023 50 30 C48.17912417 29.3507139 48.17912417 29.3507139 46.0625 28.9375 C43.82845863 28.44690289 42.05204395 28.02602198 40 27 C40 27.99 40 28.98 40 30 C40.763125 30.12375 41.52625 30.2475 42.3125 30.375 C45 31 45 31 48 33 C48 33.66 48 34.32 48 35 C49.32 35 50.64 35 52 35 C53.75 36.375 53.75 36.375 55 38 C55 38.66 55 39.32 55 40 C50.64587655 38.68664627 46.97716095 36.99285519 43.0625 34.6875 C41.82738758 33.96647977 40.59166434 33.2465053 39.35546875 32.52734375 C38.6701709 32.12757324 37.98487305 31.72780273 37.27880859 31.31591797 C33.80788013 29.31159995 30.30846384 27.35865734 26.8125 25.3984375 C15.07646403 18.8125237 3.49553699 11.99653679 -8 5 C-4.90279155 4.12159004 -3.09354597 4.00564594 0 5 C0 3.35 0 1.7 0 0 Z " fill="#EBCC2E" transform="translate(81,23)"/>
<path d="M0 0 C0 0.66 0 1.32 0 2 C1.65 1.67 3.3 1.34 5 1 C3.71034824 2.37562854 2.37310707 3.70766393 1 5 C0.34 5 -0.32 5 -1 5 C-0.99777939 5.74946396 -0.99555878 6.49892792 -0.99327087 7.27110291 C-0.97326821 14.31982291 -0.958026 21.36853315 -0.94818783 28.41727352 C-0.94295998 32.0414596 -0.93586413 35.6656223 -0.92456055 39.28979492 C-0.91372816 42.78459975 -0.90772242 46.27938204 -0.90512276 49.77420235 C-0.90236449 51.76239389 -0.89455312 53.75057631 -0.88670349 55.73875427 C-0.88659019 57.54050865 -0.88659019 57.54050865 -0.88647461 59.37866211 C-0.884254 60.44233505 -0.88203339 61.506008 -0.87974548 62.60191345 C-1 65 -1 65 -2 66 C-6.09789669 65.62056512 -8.53958935 65.30694043 -12 63 C-12 62.01 -12 61.02 -12 60 C-12.66 59.67 -13.32 59.34 -14 59 C-14 58.01 -14 57.02 -14 56 C-11.69 56 -9.38 56 -7 56 C-7 40.82 -7 25.64 -7 10 C-9.64 10.33 -12.28 10.66 -15 11 C-15 11.99 -15 12.98 -15 14 C-17.64 13.34 -20.28 12.68 -23 12 C-23 11.34 -23 10.68 -23 10 C-20.89615302 9.18667257 -18.79191143 8.37436583 -16.6875 7.5625 C-15.51574219 7.11003906 -14.34398438 6.65757812 -13.13671875 6.19140625 C-11.10617185 5.42015245 -9.06062074 4.68687358 -7 4 C-7 3.01 -7 2.02 -7 1 C-4 0 -4 0 0 0 Z " fill="#EACD2F" transform="translate(108,132)"/>
<path d="M0 0 C1.58635022 0.23008133 3.16910884 0.48499512 4.75 0.75 C5.63171875 0.88921875 6.5134375 1.0284375 7.421875 1.171875 C10.54563771 2.17526545 11.71285767 3.68287641 14 6 C16.17171475 7.09658189 18.38454975 8.11422817 20.625 9.0625 C26.77974948 11.66962422 26.77974948 11.66962422 29 15 C30.98 15.66 32.96 16.32 35 17 C35 30.86 35 44.72 35 59 C33.35 59 31.7 59 30 59 C30 58.01 30 57.02 30 56 C29.34 55.67 28.68 55.34 28 55 C28.66 55 29.32 55 30 55 C30 45.1 30 35.2 30 25 C27.03 25.66 24.06 26.32 21 27 C20.67 27.66 20.34 28.32 20 29 C18.68 28.34 17.36 27.68 16 27 C21.625 24 21.625 24 25 24 C25 21.69 25 19.38 25 17 C20.05 15.02 20.05 15.02 15 13 C15 12.34 15 11.68 15 11 C14.01 10.67 13.02 10.34 12 10 C12 9.34 12 8.68 12 8 C10.68 8 9.36 8 8 8 C8 7.34 8 6.68 8 6 C5.36095629 4.58622659 2.92879371 3.62759865 0 3 C0 2.01 0 1.02 0 0 Z " fill="#EDCD23" transform="translate(121,50)"/>
<path d="M0 0 C0 15.18 0 30.36 0 46 C-2.31 46 -4.62 46 -7 46 C-7 46.99 -7 47.98 -7 49 C-5.68 49.66 -4.36 50.32 -3 51 C-5.52631372 51.94215542 -6.64854705 52.13821578 -9.19824219 51.13549805 C-9.97329102 50.68215088 -10.74833984 50.22880371 -11.546875 49.76171875 C-12.39121094 49.27123047 -13.23554687 48.78074219 -14.10546875 48.27539062 C-14.97816406 47.75138672 -15.85085937 47.22738281 -16.75 46.6875 C-17.63816406 46.17509766 -18.52632813 45.66269531 -19.44140625 45.13476562 C-24.26479518 42.29333758 -24.26479518 42.29333758 -26 41 C-26 40.34 -26 39.68 -26 39 C-24.35 39 -22.7 39 -21 39 C-21.81855469 38.38769531 -22.63710937 37.77539062 -23.48046875 37.14453125 C-26.03666857 34.58833143 -26.38319034 32.7131996 -26.48828125 29.13671875 C-26.45524396 27.319668 -26.39589462 25.50293665 -26.3125 23.6875 C-26.28994141 22.75615234 -26.26738281 21.82480469 -26.24414062 20.86523438 C-26.18542078 18.5751604 -26.10336858 16.28842125 -26 14 C-25.01 14 -24.02 14 -23 14 C-23.33 14.33 -23.66 14.66 -24 15 C-25.49038798 20.37341675 -26.53069886 25.8101404 -24 31 C-17.72161099 36.88873498 -9.60653538 40.19673231 -2 44 C-2 30.47 -2 16.94 -2 3 C-3.98 3.33 -5.96 3.66 -8 4 C-8 3.01 -8 2.02 -8 1 C-5 0 -5 0 0 0 Z " fill="#CFBA33" transform="translate(101,142)"/>
<path d="M0 0 C4.0185613 1.21491388 7.64212249 2.43221132 11 5 C11 6.32 11 7.64 11 9 C11.66 9.33 12.32 9.66 13 10 C11.68 10 10.36 10 9 10 C9.66 11.65 10.32 13.3 11 15 C6.96118589 13.40895202 2.99469722 11.71201309 -1 10 C-1 16.6 -1 23.2 -1 30 C3.52255104 27.33091395 3.52255104 27.33091395 8.03466797 24.64428711 C9.65610673 23.70235035 11.32762621 22.84821836 13 22 C13.66 22.33 14.32 22.66 15 23 C12.47211993 25.79872437 10.79588866 27.45773019 7 28 C7 28.99 7 29.98 7 31 C7.66 31.33 8.32 31.66 9 32 C8.67 32.66 8.34 33.32 8 34 C8.70084717 33.58637207 9.40169434 33.17274414 10.1237793 32.74658203 C13.30957459 30.86911128 16.49849201 28.99700814 19.6875 27.125 C20.79029297 26.47402344 21.89308594 25.82304688 23.02929688 25.15234375 C24.09599609 24.52714844 25.16269531 23.90195313 26.26171875 23.2578125 C27.24100342 22.6817627 28.22028809 22.10571289 29.22924805 21.51220703 C31.77449625 20.1230743 34.28532274 19.00960862 37 18 C34.06884129 21.1750964 31.12499583 23.28616481 27.37890625 25.42578125 C26.27740234 26.05806641 25.17589844 26.69035156 24.04101562 27.34179688 C22.89310547 27.99212891 21.74519531 28.64246094 20.5625 29.3125 C19.44939453 29.95123047 18.33628906 30.58996094 17.18945312 31.24804688 C13.80286023 33.18352296 10.4041498 35.09559068 7 37 C6.09347687 37.51237213 6.09347687 37.51237213 5.16864014 38.03509521 C3.37609709 39.04614714 1.57771458 40.04593696 -0.22265625 41.04296875 C-1.28363525 41.63489014 -2.34461426 42.22681152 -3.43774414 42.83666992 C-4.28328857 43.22056885 -5.12883301 43.60446777 -6 44 C-6.66 43.67 -7.32 43.34 -8 43 C-6.865625 42.4225 -5.73125 41.845 -4.5625 41.25 C-2.61982668 40.20601324 -2.61982668 40.20601324 -1 39 C-0.64830932 37.67139075 -0.31229724 36.33841672 0 35 C3.0625 33.75 3.0625 33.75 6 33 C4.15274948 32.30840599 4.15274948 32.30840599 2 32 C1.01 32.66 0.02 33.32 -1 34 C-1.99 34 -2.98 34 -4 34 C-4.08694042 29.89596637 -4.14037149 25.79216871 -4.1875 21.6875 C-4.21263672 20.52025391 -4.23777344 19.35300781 -4.26367188 18.15039062 C-4.27333984 17.03212891 -4.28300781 15.91386719 -4.29296875 14.76171875 C-4.3086792 13.73006592 -4.32438965 12.69841309 -4.34057617 11.63549805 C-4 9 -4 9 -2.62304688 7.14453125 C-0.35294833 5.54371567 0.98765616 5.88209011 3.6875 6.3125 C4.49574219 6.43238281 5.30398437 6.55226563 6.13671875 6.67578125 C6.75160156 6.78277344 7.36648437 6.88976562 8 7 C8 6.34 8 5.68 8 5 C7.05125 4.9175 6.1025 4.835 5.125 4.75 C2 4 2 4 0.625 1.9375 C0.41875 1.298125 0.2125 0.65875 0 0 Z " fill="#8A822A" transform="translate(77,79)"/>
<path d="M0 0 C5.85731216 -0.31815484 7.63639194 1.11069717 12 5 C13.32676508 5.35858516 14.65835921 5.7018576 16 6 C16.33 6.99 16.66 7.98 17 9 C13.04 8.67 9.08 8.34 5 8 C4.67 16.91 4.34 25.82 4 35 C5.98 34.01 7.96 33.02 10 32 C12.875 32.3125 12.875 32.3125 15 33 C14.34 33.99 13.68 34.98 13 36 C10.375 36.1875 10.375 36.1875 8 36 C7.979375 36.7425 7.95875 37.485 7.9375 38.25 C6.86885846 41.38468185 6.31921518 41.71680802 3.5625 43.3125 C0 45 0 45 -2 45 C-2.33 43.35 -2.66 41.7 -3 40 C-2.01 39.34 -1.02 38.68 0 38 C0.26660183 35.09165115 0.34779124 32.39861732 0.29296875 29.4921875 C0.28872391 28.65156769 0.28447906 27.81094788 0.28010559 26.94485474 C0.26328532 24.25458007 0.22562781 21.56504901 0.1875 18.875 C0.17245745 17.05339622 0.1587683 15.23178072 0.14648438 13.41015625 C0.11337094 8.93981676 0.06156637 4.47003454 0 0 Z " fill="#E9CD2D" transform="translate(69,78)"/>
<path d="M0 0 C5.63776019 1.53839363 10.14341459 4.3287486 15.0625 7.375 C23.37323924 12.45452009 31.77358481 17.33899101 40.28344727 22.07763672 C41.11932373 22.54830566 41.9552002 23.01897461 42.81640625 23.50390625 C43.55318604 23.91455322 44.28996582 24.3252002 45.04907227 24.74829102 C46.98338113 25.98933738 48.4469776 27.31472732 50 29 C48.02 28.67 46.04 28.34 44 28 C44 27.34 44 26.68 44 26 C42.35 25.67 40.7 25.34 39 25 C39 24.34 39 23.68 39 23 C37.02 22.67 35.04 22.34 33 22 C33 21.34 33 20.68 33 20 C32.41992188 19.87882812 31.83984375 19.75765625 31.2421875 19.6328125 C26.71971558 18.66264526 22.36249034 17.56602217 18 16 C18.495 16.45375 18.99 16.9075 19.5 17.375 C21 19 21 19 21 21 C21.721875 21.268125 22.44375 21.53625 23.1875 21.8125 C26 23 26 23 28.4375 24.5625 C31.31835321 26.17858838 33.73990924 26.62091968 37 27 C37 27.66 37 28.32 37 29 C38.051875 29.2475 39.10375 29.495 40.1875 29.75 C43.82655438 30.79078431 46.2561911 32.33689136 49 35 C49.33 35.99 49.66 36.98 50 38 C45.85163747 36.73374595 42.28683991 35.1847681 38.55078125 32.98828125 C37.03000977 32.09786133 37.03000977 32.09786133 35.47851562 31.18945312 C34.43373047 30.57005859 33.38894531 29.95066406 32.3125 29.3125 C31.28705078 28.71244141 30.26160156 28.11238281 29.20507812 27.49414062 C22.37353107 23.4763451 15.65794416 19.29887549 9 15 C9.33 14.34 9.66 13.68 10 13 C11.65 13.33 13.3 13.66 15 14 C15.33 13.34 15.66 12.68 16 12 C13.69 11.01 11.38 10.02 9 9 C9 8.34 9 7.68 9 7 C7.68 7 6.36 7 5 7 C4.731875 6.401875 4.46375 5.80375 4.1875 5.1875 C3.01506533 3.02775192 1.80630718 1.64209744 0 0 Z " fill="#B7A838" transform="translate(56,45)"/>
<path d="M0 0 C0 1.32 0 2.64 0 4 C-3.3171411 5.4216319 -6.44219804 6.39009109 -10 7 C-10 7.66 -10 8.32 -10 9 C-11.32 9 -12.64 9 -14 9 C-13.979375 9.86625 -13.95875 10.7325 -13.9375 11.625 C-15.38473857 16.22211074 -17.89929911 17.4120813 -21.87109375 19.8984375 C-24 21 -24 21 -26 21 C-26 39.81 -26 58.62 -26 78 C-26.33 78 -26.66 78 -27 78 C-27.09265712 70.48967858 -27.16374292 62.97941636 -27.20724869 55.46865368 C-27.228129 51.98109444 -27.25645318 48.49392606 -27.30175781 45.0065918 C-27.35351062 40.99784583 -27.37294136 36.98951078 -27.390625 32.98046875 C-27.41127014 31.72727341 -27.43191528 30.47407806 -27.45318604 29.1829071 C-27.45348816 28.02193008 -27.45379028 26.86095306 -27.45410156 25.66479492 C-27.46298401 24.64109299 -27.47186646 23.61739105 -27.48101807 22.56266785 C-27 20 -27 20 -24.97161865 18.14595032 C-24.3209845 17.76778671 -23.67035034 17.38962311 -23 17 C-23.99 17 -24.98 17 -26 17 C-26 16.34 -26 15.68 -26 15 C-28.31 15.33 -30.62 15.66 -33 16 C-33 16.99 -33 17.98 -33 19 C-38.33931188 21.86034565 -43.07943568 23.73130765 -49 25 C-45.70181597 21.49233671 -41.8541788 19.27149944 -37.75 16.8125 C-37.01136719 16.34908203 -36.27273437 15.88566406 -35.51171875 15.40820312 C-30.72196137 12.54026198 -27.58518304 11.43113876 -22 12 C-21.67 11.01 -21.34 10.02 -21 9 C-18.93359375 8.26953125 -18.93359375 8.26953125 -16.4375 7.8125 C-15.61121094 7.65394531 -14.78492188 7.49539062 -13.93359375 7.33203125 C-13.29550781 7.22246094 -12.65742187 7.11289063 -12 7 C-12 6.34 -12 5.68 -12 5 C-10 4 -8 3 -6 2 C-5.2575 1.608125 -4.515 1.21625 -3.75 0.8125 C-2 0 -2 0 0 0 Z " fill="#8F821B" transform="translate(134,117)"/>
<path d="M0 0 C4.3890815 0.51035831 7.33708062 1.52214277 11 4 C10.67 6.31 10.34 8.62 10 11 C7.36 11.99 4.72 12.98 2 14 C4.18342652 14.11166989 4.18342652 14.11166989 6.8125 13 C10 12 10 12 15 12 C15 21.9 15 31.8 15 42 C14.01 41.505 14.01 41.505 13 41 C13.33 32.09 13.66 23.18 14 14 C10.7 15.98 7.4 17.96 4 20 C-2.73684211 24 -2.73684211 24 -5 24 C-5 23.01 -5 22.02 -5 21 C-2 19 -2 19 2 19 C2 18.01 2 17.02 2 16 C-0.31 16.33 -2.62 16.66 -5 17 C-5 17.66 -5 18.32 -5 19 C-9.49011128 20.81742599 -12.29341431 21.12548788 -17 20 C-17.78375 19.814375 -18.5675 19.62875 -19.375 19.4375 C-19.91125 19.293125 -20.4475 19.14875 -21 19 C-21 18.34 -21 17.68 -21 17 C-21.99 17 -22.98 17 -24 17 C-25.5 15.6875 -25.5 15.6875 -27 14 C-27.556875 13.443125 -28.11375 12.88625 -28.6875 12.3125 C-29.3371875 11.6628125 -29.3371875 11.6628125 -30 11 C-26.87525754 11.82230065 -24.35742101 12.7317783 -21.76171875 14.6796875 C-19.18122265 16.59756817 -17.06060733 17.9915918 -14 19 C-9.78300279 17.8543418 -6.57121968 15.45644669 -3 13 C-0.94990122 11.85255665 1.11232274 10.72644024 3.1875 9.625 C4.10917969 9.12226562 5.03085938 8.61953125 5.98046875 8.1015625 C6.64691406 7.73804687 7.31335938 7.37453125 8 7 C7.236875 6.401875 6.47375 5.80375 5.6875 5.1875 C3.6516425 3.53040668 1.8021721 1.89702326 0 0 Z " fill="#8C842B" transform="translate(136,63)"/>
<path d="M0 0 C6.0546875 -0.1953125 6.0546875 -0.1953125 8 0 C8.66 0.66 9.32 1.32 10 2 C12.06874034 2.6425235 12.06874034 2.6425235 14 3 C14 3.99 14 4.98 14 6 C15.32 6 16.64 6 18 6 C18.33 4.68 18.66 3.36 19 2 C23.27527531 3.28534083 26.82337798 4.91332347 30.6171875 7.2578125 C31.63554687 7.88300781 32.65390625 8.50820313 33.703125 9.15234375 C34.74984375 9.80332031 35.7965625 10.45429687 36.875 11.125 C38.47988281 12.11306641 38.47988281 12.11306641 40.1171875 13.12109375 C42.74819964 14.74198516 45.37561007 16.36841634 48 18 C47.01 18.495 47.01 18.495 46 19 C43.57034815 17.97218364 41.2762448 16.89301452 38.9375 15.6875 C38.28716797 15.36587891 37.63683594 15.04425781 36.96679688 14.71289062 C32.13119011 12.26238023 32.13119011 12.26238023 31 10 C29.17912417 9.3507139 29.17912417 9.3507139 27.0625 8.9375 C24.82845863 8.44690289 23.05204395 8.02602198 21 7 C21 7.99 21 8.98 21 10 C21.763125 10.12375 22.52625 10.2475 23.3125 10.375 C26 11 26 11 29 13 C29 13.66 29 14.32 29 15 C30.32 15 31.64 15 33 15 C34.75 16.375 34.75 16.375 36 18 C36 18.66 36 19.32 36 20 C31.47884457 18.64908419 27.68844062 16.82633979 23.625 14.4375 C22.40663511 13.7272036 21.18786751 13.01759762 19.96875 12.30859375 C19.33066406 11.93589355 18.69257812 11.56319336 18.03515625 11.17919922 C14.41863032 9.08373134 10.77075147 7.04405296 7.125 5 C5.75259898 4.2291759 4.38020269 3.45834339 3.0078125 2.6875 C2.01523438 2.130625 1.02265625 1.57375 0 1 C0 0.67 0 0.34 0 0 Z " fill="#D2C050" transform="translate(100,43)"/>
<path d="M0 0 C0 0.66 0 1.32 0 2 C1.65 1.67 3.3 1.34 5 1 C3.71034824 2.37562854 2.37310707 3.70766393 1 5 C0.34 5 -0.32 5 -1 5 C-0.99777939 5.74946396 -0.99555878 6.49892792 -0.99327087 7.27110291 C-0.97326821 14.31982291 -0.958026 21.36853315 -0.94818783 28.41727352 C-0.94295998 32.0414596 -0.93586413 35.6656223 -0.92456055 39.28979492 C-0.91372816 42.78459975 -0.90772242 46.27938204 -0.90512276 49.77420235 C-0.90236449 51.76239389 -0.89455312 53.75057631 -0.88670349 55.73875427 C-0.88662796 56.93992386 -0.88655243 58.14109344 -0.88647461 59.37866211 C-0.884254 60.44233505 -0.88203339 61.506008 -0.87974548 62.60191345 C-1 65 -1 65 -2 66 C-6.82976947 65.6422393 -8.4833494 65.5166506 -12 62 C-9.03 62.33 -6.06 62.66 -3 63 C-3.00222061 62.2947821 -3.00444122 61.58956421 -3.00672913 60.86297607 C-3.02677753 54.21252813 -3.04199736 47.56208863 -3.05181217 40.91161728 C-3.0570277 37.49266011 -3.0641012 34.07372794 -3.07543945 30.65478516 C-3.0883967 26.72298483 -3.09323922 22.79119458 -3.09765625 18.859375 C-3.10281754 17.63321472 -3.10797882 16.40705444 -3.11329651 15.14373779 C-3.11337204 14.00285706 -3.11344757 12.86197632 -3.11352539 11.68652344 C-3.115746 10.68280701 -3.11796661 9.67909058 -3.12025452 8.6449585 C-3.01216762 6.26762285 -2.68064995 4.2710105 -2 2 C-3.65 2.33 -5.3 2.66 -7 3 C-7 2.34 -7 1.68 -7 1 C-4 0 -4 0 0 0 Z " fill="#E3CE47" transform="translate(108,132)"/>
<path d="M0 0 C4.62254902 2.11029412 4.62254902 2.11029412 5.875 5.0625 C6 7 6 7 5 9 C2.72886197 8.85899143 0.45809275 8.71203245 -1.8125 8.5625 C-3.07707031 8.48128906 -4.34164062 8.40007813 -5.64453125 8.31640625 C-9 8 -9 8 -12 7 C-12 7.66 -12 8.32 -12 9 C-13.65 9.66 -15.3 10.32 -17 11 C-17.66 9.68 -18.32 8.36 -19 7 C-13.79252792 1.39702371 -7.66892451 -2.35966908 0 0 Z " fill="#ECCE20" transform="translate(76,19)"/>
<path d="M0 0 C3.34474944 1.14975762 6.0790617 2.67217572 9 4.625 C12.17224617 6.64261998 14.16366206 7.72579366 18 7 C20.73774618 6.07254351 20.73774618 6.07254351 23 5 C22.74438677 7.3431213 22.40729228 9.67843403 22 12 C21.01 12.495 21.01 12.495 20 13 C20 12.01 20 11.02 20 10 C18.95199219 10.01740234 18.95199219 10.01740234 17.8828125 10.03515625 C16.97273438 10.04417969 16.06265625 10.05320312 15.125 10.0625 C13.76761719 10.07990234 13.76761719 10.07990234 12.3828125 10.09765625 C10 10 10 10 8 9 C8.33 10.98 8.66 12.96 9 15 C7.35 15.33 5.7 15.66 4 16 C4.33 14.68 4.66 13.36 5 12 C4.236875 11.814375 3.47375 11.62875 2.6875 11.4375 C-1.18615728 9.36554378 -1.56545263 7.07713462 -3 3 C-2.01 3 -1.02 3 0 3 C0 2.01 0 1.02 0 0 Z " fill="#B3A535" transform="translate(88,85)"/>
<path d="M0 0 C0 0.99 0 1.98 0 3 C-2.31 3.66 -4.62 4.32 -7 5 C-7 5.99 -7 6.98 -7 8 C-8.546875 8.433125 -8.546875 8.433125 -10.125 8.875 C-13.45007997 9.82308798 -16.72751453 10.88256594 -20 12 C-20.33 10.35 -20.66 8.7 -21 7 C-21.763125 6.896875 -22.52625 6.79375 -23.3125 6.6875 C-26.18416484 5.95288806 -27.23042094 5.3283935 -29 3 C-29 2.34 -29 1.68 -29 1 C-28.34773438 1.13277344 -27.69546875 1.26554687 -27.0234375 1.40234375 C-25.2170168 1.76735796 -23.40967692 2.1278454 -21.6015625 2.484375 C-19.64823608 2.87152078 -17.69820993 3.27537867 -15.75 3.6875 C-12.63413438 4.04157564 -10.05440257 3.65451484 -7 3 C-7 2.34 -7 1.68 -7 1 C-3.375 -1.125 -3.375 -1.125 0 0 Z " fill="#ECCF2C" transform="translate(138,79)"/>
<path d="M0 0 C1.65 0 3.3 0 5 0 C5.061875 0.78375 5.12375 1.5675 5.1875 2.375 C5.455625 3.24125 5.72375 4.1075 6 5 C8.47636012 6.37466625 8.47636012 6.37466625 11 7 C11 7.66 11 8.32 11 9 C11.94875 9.12375 12.8975 9.2475 13.875 9.375 C17 10 17 10 19 12 C18.01 12.495 18.01 12.495 17 13 C17.99 13.66 18.98 14.32 20 15 C20 15.66 20 16.32 20 17 C18.02 17 16.04 17 14 17 C13.67 16.01 13.34 15.02 13 14 C12.01 13.67 11.02 13.34 10 13 C10 12.34 10 11.68 10 11 C8.63875 10.8453125 8.63875 10.8453125 7.25 10.6875 C3.91400609 9.98180898 2.53150464 9.18233159 0 7 C-0.99 6.34 -1.98 5.68 -3 5 C-3 4.01 -3 3.02 -3 2 C-2.01 2 -1.02 2 0 2 C0 1.34 0 0.68 0 0 Z " fill="#EDCF23" transform="translate(41,132)"/>
<path d="M0 0 C3.96 0.33 7.92 0.66 12 1 C12 1.99 12 2.98 12 4 C11.34 4 10.68 4 10 4 C10 4.66 10 5.32 10 6 C7.36 6.33 4.72 6.66 2 7 C2 7.99 2 8.98 2 10 C0.68 10 -0.64 10 -2 10 C-2 10.99 -2 11.98 -2 13 C-5.37362154 15.60250805 -7.76907828 16.36265043 -12 16 C-12 15.01 -12 14.02 -12 13 C-7.77777778 10 -7.77777778 10 -5 10 C-4.67 9.01 -4.34 8.02 -4 7 C-2.35 6.67 -0.7 6.34 1 6 C0.67 4.02 0.34 2.04 0 0 Z " fill="#EBCD29" transform="translate(96,94)"/>
<path d="M0 0 C4.30764815 1.56641751 8.06171464 3.68336156 12 6 C9.45297384 7.27351308 8.5717055 6.80191925 5.875 6.0625 C5.15054688 5.86785156 4.42609375 5.67320313 3.6796875 5.47265625 C3.12539062 5.31667969 2.57109375 5.16070313 2 5 C2.33 5.99 2.66 6.98 3 8 C5.26044171 9.13678329 5.26044171 9.13678329 7.9375 10 C12.78193146 11.6728972 12.78193146 11.6728972 15 15 C15.99 15.66 16.98 16.32 18 17 C18.33 17.99 18.66 18.98 19 20 C15.33057139 18.62938601 12.06140503 16.96645212 8.69921875 14.9609375 C7.72275391 14.38085938 6.74628906 13.80078125 5.74023438 13.203125 C4.73283203 12.59984375 3.72542969 11.9965625 2.6875 11.375 C1.66076172 10.76398437 0.63402344 10.15296875 -0.42382812 9.5234375 C-2.95113875 8.01880606 -5.47643399 6.5109006 -8 5 C-4.90279155 4.12159004 -3.09354597 4.00564594 0 5 C0 3.35 0 1.7 0 0 Z " fill="#968C32" transform="translate(81,23)"/>
<path d="M0 0 C0.66 0.33 1.32 0.66 2 1 C2.33 1.99 2.66 2.98 3 4 C4.65 3.67 6.3 3.34 8 3 C8 2.34 8 1.68 8 1 C10.97 1 13.94 1 17 1 C13.40819629 3.39453581 9.6928756 5.49994219 5.9375 7.625 C5.20466797 8.04523437 4.47183594 8.46546875 3.71679688 8.8984375 C3.01490234 9.29546875 2.31300781 9.6925 1.58984375 10.1015625 C0.94909912 10.46588379 0.30835449 10.83020508 -0.35180664 11.20556641 C-2 12 -2 12 -4 12 C-4 11.01 -4 10.02 -4 9 C-3.01 9 -2.02 9 -1 9 C-1 8.34 -1 7.68 -1 7 C-4.96 7.66 -8.92 8.32 -13 9 C-10.35065989 6.35065989 -8.10515144 4.67205065 -4.9375 2.75 C-4.05964844 2.20859375 -3.18179688 1.6671875 -2.27734375 1.109375 C-1.52582031 0.74328125 -0.77429687 0.3771875 0 0 Z " fill="#CAB736" transform="translate(56,25)"/>
<path d="M0 0 C0 15.18 0 30.36 0 46 C-1.32 45.34 -2.64 44.68 -4 44 C-3.34 44 -2.68 44 -2 44 C-2 30.47 -2 16.94 -2 3 C-3.98 3.33 -5.96 3.66 -8 4 C-8 3.01 -8 2.02 -8 1 C-5 0 -5 0 0 0 Z " fill="#5B5C1E" transform="translate(101,142)"/>
<path d="M0 0 C0 0.66 0 1.32 0 2 C-0.99 2 -1.98 2 -3 2 C-3 2.99 -3 3.98 -3 5 C-5.31 5.33 -7.62 5.66 -10 6 C-9.21869929 8.49552484 -9.21869929 8.49552484 -8 11 C-7.01 11.33 -6.02 11.66 -5 12 C-4.67 12.99 -4.34 13.98 -4 15 C-6.02045442 14.39816251 -8.02111039 13.72693904 -10 13 C-10.33 12.34 -10.66 11.68 -11 11 C-11.99 10.566875 -11.99 10.566875 -13 10.125 C-15 9 -15 9 -15.75 6.875 C-15.8325 6.25625 -15.915 5.6375 -16 5 C-14.68 4.67 -13.36 4.34 -12 4 C-12 3.34 -12 2.68 -12 2 C-7.8794254 0.00214565 -4.54805635 -0.17835515 0 0 Z " fill="#E4CD3A" transform="translate(55,32)"/>
<path d="M0 0 C2.3431213 0.25561323 4.67843403 0.59270772 7 1 C7.33 1.66 7.66 2.32 8 3 C5.36 2.67 2.72 2.34 0 2 C0 14.21 0 26.42 0 39 C-1.65 39.66 -3.3 40.32 -5 41 C-4.34 40.01 -3.68 39.02 -3 38 C-2.78330796 35.35399861 -2.67511531 32.80416207 -2.65625 30.15625 C-2.6416272 29.39074829 -2.62700439 28.62524658 -2.61193848 27.83654785 C-2.56544962 25.39108467 -2.5312381 22.94570274 -2.5 20.5 C-2.45888418 17.28094795 -2.40523479 14.06247024 -2.34375 10.84375 C-2.3384729 10.10306274 -2.3331958 9.36237549 -2.32775879 8.59924316 C-2.25532937 4.86923665 -2.12183594 3.1827539 0 0 Z " fill="#6D6E2E" transform="translate(69,76)"/>
<path d="M0 0 C7 0 7 0 8.6875 1.4375 C9.120625 1.953125 9.55375 2.46875 10 3 C11.051875 3.2475 11.051875 3.2475 12.125 3.5 C12.74375 3.665 13.3625 3.83 14 4 C14.33 4.99 14.66 5.98 15 7 C11.04 6.67 7.08 6.34 3 6 C2.34 11.94 1.68 17.88 1 24 C0.67 24 0.34 24 0 24 C0 16.08 0 8.16 0 0 Z " fill="#EECB1E" transform="translate(71,80)"/>
<path d="M0 0 C0.33 0 0.66 0 1 0 C1.02312851 7.54498233 1.04091769 15.08996101 1.05181217 22.63497066 C1.05703989 26.13808885 1.0641355 29.64118285 1.07543945 33.14428711 C1.08834206 37.16780841 1.09322912 41.19130414 1.09765625 45.21484375 C1.10281754 46.47836166 1.10797882 47.74187958 1.11329651 49.04368591 C1.11337204 50.204814 1.11344757 51.36594208 1.11352539 52.56225586 C1.115746 53.59039902 1.11796661 54.61854218 1.12025452 55.67784119 C1 58 1 58 0 59 C-4.82976947 58.6422393 -6.4833494 58.5166506 -10 55 C-7.03 55 -4.06 55 -1 55 C-0.67 36.85 -0.34 18.7 0 0 Z " fill="#C8C068" transform="translate(106,139)"/>
<path d="M0 0 C0.66 0.33 1.32 0.66 2 1 C2 9.91 2 18.82 2 28 C2.99 28 3.98 28 5 28 C5 29.65 5 31.3 5 33 C3.35 33 1.7 33 0 33 C0 32.01 0 31.02 0 30 C-0.66 29.67 -1.32 29.34 -2 29 C-1.34 29 -0.68 29 0 29 C0 19.43 0 9.86 0 0 Z " fill="#E3CF46" transform="translate(151,76)"/>
<path d="M0 0 C3.02016884 1.09824321 5.70532295 2.39283625 8.4375 4.0625 C11.57446535 5.91303438 14.34430491 6.64334682 18 7 C18 7.66 18 8.32 18 9 C19.051875 9.2475 20.10375 9.495 21.1875 9.75 C24.82655438 10.79078431 27.2561911 12.33689136 30 15 C30.33 15.99 30.66 16.98 31 18 C26.72285001 16.70137443 23.0591687 15.05950442 19.19921875 12.8125 C18.14025391 12.19632813 17.08128906 11.58015625 15.99023438 10.9453125 C14.90033203 10.30335937 13.81042969 9.66140625 12.6875 9 C11.02364258 8.03707031 11.02364258 8.03707031 9.32617188 7.0546875 C1.12748241 2.25496483 1.12748241 2.25496483 0 0 Z " fill="#6A6925" transform="translate(75,65)"/>
<path d="M0 0 C0.66 0.33 1.32 0.66 2 1 C1.67 1.33 1.34 1.66 1 2 C0.39919441 7.42583189 0.20591688 12.58928191 1 18 C3.28171884 20.77600804 5.58916273 21.96456726 9 23 C8.34 23.66 7.68 24.32 7 25 C6.60235737 26.98821313 6.26224651 28.98944339 6 31 C3.0625 30.1875 3.0625 30.1875 0 29 C-0.33 28.01 -0.66 27.02 -1 26 C0.65 26 2.3 26 4 26 C3.18273437 25.38640625 2.36546875 24.7728125 1.5234375 24.140625 C-1.01733854 21.59805589 -1.39162355 19.72949286 -1.5234375 16.171875 C-1.4996505 14.36406264 -1.44941288 12.55643685 -1.375 10.75 C-1.36082031 9.82703125 -1.34664063 8.9040625 -1.33203125 7.953125 C-1.18268327 1.18268327 -1.18268327 1.18268327 0 0 Z " fill="#7B7823" transform="translate(76,155)"/>
<path d="M0 0 C0.66 0 1.32 0 2 0 C2.33 4.29 2.66 8.58 3 13 C0.03 12.67 -2.94 12.34 -6 12 C-6 11.34 -6 10.68 -6 10 C-6.66 9.67 -7.32 9.34 -8 9 C-8 8.01 -8 7.02 -8 6 C-5.36 6 -2.72 6 0 6 C0 4.02 0 2.04 0 0 Z " fill="#EBCD25" transform="translate(102,182)"/>
<path d="M0 0 C0.845625 0.185625 1.69125 0.37125 2.5625 0.5625 C6.2773282 1.03529632 9.32974273 0.66064631 13 0 C12.67 0.99 12.34 1.98 12 3 C10.68 3 9.36 3 8 3 C7.67 8.61 7.34 14.22 7 20 C6.34 20 5.68 20 5 20 C4.97421875 19.09636719 4.9484375 18.19273437 4.921875 17.26171875 C4.86515625 16.08222656 4.8084375 14.90273437 4.75 13.6875 C4.70359375 12.51574219 4.6571875 11.34398437 4.609375 10.13671875 C3.88322177 6.39889153 3.01449724 6.05588712 0 4 C0 2.68 0 1.36 0 0 Z " fill="#EFCC22" transform="translate(66,150)"/>
<path d="M0 0 C0.55171875 0.22558594 1.1034375 0.45117188 1.671875 0.68359375 C1.671875 1.67359375 1.671875 2.66359375 1.671875 3.68359375 C3.651875 3.68359375 5.631875 3.68359375 7.671875 3.68359375 C4.48592365 6.32338201 1.36216954 8.78857763 -2.328125 10.68359375 C-2.988125 10.35359375 -3.648125 10.02359375 -4.328125 9.68359375 C-3.998125 9.02359375 -3.668125 8.36359375 -3.328125 7.68359375 C-2.668125 7.68359375 -2.008125 7.68359375 -1.328125 7.68359375 C-0.998125 6.36359375 -0.668125 5.04359375 -0.328125 3.68359375 C-0.94300781 3.91175781 -1.55789062 4.13992187 -2.19140625 4.375 C-2.99964844 4.66246094 -3.80789062 4.94992188 -4.640625 5.24609375 C-5.84138672 5.68115234 -5.84138672 5.68115234 -7.06640625 6.125 C-9.328125 6.68359375 -9.328125 6.68359375 -12.328125 5.68359375 C-10.75465324 4.64762475 -9.16890954 3.63027643 -7.578125 2.62109375 C-6.69640625 2.05261719 -5.8146875 1.48414062 -4.90625 0.8984375 C-2.328125 -0.31640625 -2.328125 -0.31640625 0 0 Z " fill="#978F31" transform="translate(149.328125,105.31640625)"/>
<path d="M0 0 C0.66 0.33 1.32 0.66 2 1 C1.67 1.99 1.34 2.98 1 4 C0.01 4 -0.98 4 -2 4 C-1.67 4.99 -1.34 5.98 -1 7 C1.30368736 8.06652192 3.64018187 9.06421005 6 10 C13.71428571 15.14285714 13.71428571 15.14285714 15 19 C10.75877447 17.47730437 7.04913327 15.32369719 3.25 12.9375 C2.66089844 12.57333984 2.07179688 12.20917969 1.46484375 11.83398438 C-2.84776311 9.15223689 -2.84776311 9.15223689 -4 8 C-4.3125 5.625 -4.3125 5.625 -4 3 C-2 1.1875 -2 1.1875 0 0 Z " fill="#AFA346" transform="translate(40,130)"/>
<path d="M0 0 C1.46067199 0.45082469 2.91848032 0.91093537 4.375 1.375 C5.18710938 1.63023438 5.99921875 1.88546875 6.8359375 2.1484375 C9 3 9 3 11 5 C13.57061311 5.64767793 13.57061311 5.64767793 16 6 C15.3125 7.9375 15.3125 7.9375 14 10 C11.375 10.75 11.375 10.75 9 11 C8.67 9.35 8.34 7.7 8 6 C7.236875 5.896875 6.47375 5.79375 5.6875 5.6875 C2.81583516 4.95288806 1.76957906 4.3283935 0 2 C0 1.34 0 0.68 0 0 Z " fill="#EFCE1D" transform="translate(109,80)"/>
<path d="M0 0 C6.0546875 -0.1953125 6.0546875 -0.1953125 8 0 C8.66 0.66 9.32 1.32 10 2 C12.06874034 2.6425235 12.06874034 2.6425235 14 3 C14 3.99 14 4.98 14 6 C14.66 6 15.32 6 16 6 C17.33333333 7.33333333 18.66666667 8.66666667 20 10 C21.63978318 11.04349839 23.30094366 12.05607981 25 13 C24.01 13.495 24.01 13.495 23 14 C20.87695312 13.04370117 20.87695312 13.04370117 18.28125 11.54296875 C17.34925781 11.00736328 16.41726562 10.47175781 15.45703125 9.91992188 C14.48121094 9.34822266 13.50539063 8.77652344 12.5 8.1875 C11.52417969 7.62740234 10.54835938 7.06730469 9.54296875 6.49023438 C2.29460437 2.29460437 2.29460437 2.29460437 0 0 Z " fill="#797629" transform="translate(100,43)"/>
<path d="M0 0 C6.08882416 1.59806348 11.0664755 4.8611283 16.375 8.125 C17.30183594 8.68832031 18.22867188 9.25164063 19.18359375 9.83203125 C21.45903155 11.21606043 23.7309763 12.60548922 26 14 C22.25 15.125 22.25 15.125 20 14 C20 13.34 20 12.68 20 12 C19.32453125 11.91492187 18.6490625 11.82984375 17.953125 11.7421875 C14.1935013 10.79730853 11.07604935 9.05024434 7.75 7.125 C7.11320312 6.77308594 6.47640625 6.42117187 5.8203125 6.05859375 C1.12346626 3.37039877 1.12346626 3.37039877 0 0 Z " fill="#938E39" transform="translate(93,30)"/>
<path d="M0 0 C0.33 0 0.66 0 1 0 C1.25 2.8125 1.25 2.8125 1 6 C-0.875 7.875 -0.875 7.875 -3 9 C-3.66 9 -4.32 9 -5 9 C-5 9.99 -5 10.98 -5 12 C-6.74468372 12.70088156 -8.49601161 13.38524009 -10.25 14.0625 C-11.22453125 14.44535156 -12.1990625 14.82820313 -13.203125 15.22265625 C-16.04007395 16.01113787 -17.29409552 16.02437812 -20 15 C-17.963006 13.70043409 -15.92092385 12.4103739 -13.875 11.125 C-13.30523437 10.76019531 -12.73546875 10.39539063 -12.1484375 10.01953125 C-8.53527295 7.7613034 -5.09113959 6.1813321 -1 5 C-0.67 3.35 -0.34 1.7 0 0 Z " fill="#AFA13A" transform="translate(69,110)"/>
<path d="M0 0 C0 0.66 0 1.32 0 2 C-0.99 2.33 -1.98 2.66 -3 3 C-3.33 3.66 -3.66 4.32 -4 5 C-3.34 5.33 -2.68 5.66 -2 6 C0.82858903 7.71429638 1.84379362 8.44026046 2.75 11.6875 C2.87375 12.8321875 2.87375 12.8321875 3 14 C-0.59075147 12.66629231 -3.84621398 11.19012918 -7 9 C-7.33 8.01 -7.66 7.02 -8 6 C-3.85714286 0 -3.85714286 0 0 0 Z " fill="#AFA13D" transform="translate(43,34)"/>
<path d="M0 0 C2.9375 1.5625 2.9375 1.5625 5 3 C1.90527467 3.96841745 -0.26211299 3.93633358 -3.4375 3.375 C-7.67949156 2.81264105 -9.44874215 3.53384871 -13 6 C-15.8125 6.1875 -15.8125 6.1875 -18 6 C-12.08218814 0.95245459 -7.89188907 -2.00884449 0 0 Z " fill="#A9A03F" transform="translate(76,19)"/>
<path d="M0 0 C2 1 2 1 3 3 C0.69 3.33 -1.62 3.66 -4 4 C-4 4.99 -4 5.98 -4 7 C-9.33931188 9.86034565 -14.07943568 11.73130765 -20 13 C-16.6458582 9.40744306 -12.64417607 7.22164038 -8.4375 4.75 C-7.65697266 4.27820313 -6.87644531 3.80640625 -6.07226562 3.3203125 C-5.32525391 2.87945312 -4.57824219 2.43859375 -3.80859375 1.984375 C-3.12595459 1.57928711 -2.44331543 1.17419922 -1.73999023 0.75683594 C-0.87869507 0.38220215 -0.87869507 0.38220215 0 0 Z " fill="#7D792C" transform="translate(105,129)"/>
<path d="M0 0 C2.64 0.33 5.28 0.66 8 1 C8.33 1.99 8.66 2.98 9 4 C8.67 4.66 8.34 5.32 8 6 C1.07 5.505 1.07 5.505 -6 5 C-6 4.34 -6 3.68 -6 3 C-4.02 2.67 -2.04 2.34 0 2 C0 1.34 0 0.68 0 0 Z " fill="#EBCD32" transform="translate(73,22)"/>
<path d="M0 0 C4.97874064 0.47416578 8.06718758 1.9099331 12 5 C12 5.66 12 6.32 12 7 C12.99 7 13.98 7 15 7 C14.67 7.66 14.34 8.32 14 9 C11.525 8.01 11.525 8.01 9 7 C9.33 7.99 9.66 8.98 10 10 C7.5625 9.625 7.5625 9.625 5 9 C4 7 4 7 4 3 C2.07977297 1.22590192 2.07977297 1.22590192 0 0 Z " fill="#DFCA43" transform="translate(100,73)"/>
<path d="M0 0 C1.4540625 0.0309375 1.4540625 0.0309375 2.9375 0.0625 C-1.59124388 3.98741136 -6.66848991 7.43709686 -12.0625 10.0625 C-12.7225 9.7325 -13.3825 9.4025 -14.0625 9.0625 C-13.7325 7.7425 -13.4025 6.4225 -13.0625 5.0625 C-11.7425 5.0625 -10.4225 5.0625 -9.0625 5.0625 C-9.0625 4.4025 -9.0625 3.7425 -9.0625 3.0625 C-8.258125 2.753125 -7.45375 2.44375 -6.625 2.125 C-1.57765152 0.03219697 -1.57765152 0.03219697 0 0 Z " fill="#A29A36" transform="translate(133.0625,120.9375)"/>
<path d="M0 0 C1.98 0 3.96 0 6 0 C6.33 0.99 6.66 1.98 7 3 C9.00060057 3.91521187 9.00060057 3.91521187 11.375 4.5 C14.7366871 5.41981015 16.80383852 6.22291839 19 9 C19 9.66 19 10.32 19 11 C14.25652774 9.62309544 10.27474838 7.56160559 6.125 4.9375 C5.53203125 4.57333984 4.9390625 4.20917969 4.328125 3.83398438 C2.86464287 2.9218371 1.4292745 1.96486632 0 1 C0 0.67 0 0.34 0 0 Z " fill="#988E3A" transform="translate(46,48)"/>
<path d="M0 0 C2.31 0 4.62 0 7 0 C6.67 0.66 6.34 1.32 6 2 C4.68 2.33 3.36 2.66 2 3 C1.67 8.94 1.34 14.88 1 21 C0.34 21 -0.32 21 -1 21 C-1.02895976 17.87501937 -1.04678483 14.7500731 -1.0625 11.625 C-1.07087891 10.73554688 -1.07925781 9.84609375 -1.08789062 8.9296875 C-1.09111328 8.07890625 -1.09433594 7.228125 -1.09765625 6.3515625 C-1.10289307 5.56604004 -1.10812988 4.78051758 -1.11352539 3.97119141 C-1 2 -1 2 0 0 Z " fill="#C1B540" transform="translate(74,153)"/>
<path d="M0 0 C0.66 0.33 1.32 0.66 2 1 C0.71034824 2.37562854 -0.62689293 3.70766393 -2 5 C-2.66 5 -3.32 5 -4 5 C-4 5.66 -4 6.32 -4 7 C-4.63808594 7.19335938 -5.27617188 7.38671875 -5.93359375 7.5859375 C-7.17302734 7.97652344 -7.17302734 7.97652344 -8.4375 8.375 C-9.26121094 8.63023438 -10.08492187 8.88546875 -10.93359375 9.1484375 C-13.17798016 9.80882227 -13.17798016 9.80882227 -14 12 C-15.65 12 -17.3 12 -19 12 C-17.58323053 9.16646105 -15.66123174 8.59023903 -12.875 7.125 C-9.50901944 5.34352525 -6.19310516 3.53788833 -2.9375 1.5625 C-1.968125 1.046875 -0.99875 0.53125 0 0 Z " fill="#6C6C26" transform="translate(126,117)"/>
<path d="M0 0 C5.43683334 1.49212776 9.69063815 4.1009183 14.375 7.125 C15.47908203 7.82689453 15.47908203 7.82689453 16.60546875 8.54296875 C18.40730078 9.68958913 20.20416431 10.84401076 22 12 C21.01 12.495 21.01 12.495 20 13 C17.57034815 11.97218364 15.2762448 10.89301452 12.9375 9.6875 C12.28716797 9.36587891 11.63683594 9.04425781 10.96679688 8.71289062 C6.13119011 6.26238023 6.13119011 6.26238023 5 4 C4.01 3.7834375 4.01 3.7834375 3 3.5625 C2.34 3.376875 1.68 3.19125 1 3 C0.67 2.01 0.34 1.02 0 0 Z " fill="#928B36" transform="translate(126,49)"/>
<path d="M0 0 C-0.33 1.32 -0.66 2.64 -1 4 C-1.99 4 -2.98 4 -4 4 C-4 4.99 -4 5.98 -4 7 C-6.64 6.34 -9.28 5.68 -12 5 C-12 4.34 -12 3.68 -12 3 C-10.3789897 2.30314502 -8.75303934 1.61777139 -7.125 0.9375 C-6.22007813 0.55464844 -5.31515625 0.17179688 -4.3828125 -0.22265625 C-2 -1 -2 -1 0 0 Z " fill="#E7CD32" transform="translate(97,139)"/>
<path d="M0 0 C-0.33 1.32 -0.66 2.64 -1 4 C-1.66 4 -2.32 4 -3 4 C-3.33 4.99 -3.66 5.98 -4 7 C-5.32 7 -6.64 7 -8 7 C-8 6.34 -8 5.68 -8 5 C-9.32 5 -10.64 5 -12 5 C-12 4.34 -12 3.68 -12 3 C-11.05125 2.690625 -10.1025 2.38125 -9.125 2.0625 C-3.05882353 0 -3.05882353 0 0 0 Z " fill="#ECCD29" transform="translate(149,109)"/>
<path d="M0 0 C4.76551013 1.37605916 8.7248553 3.46778066 12.875 6.125 C13.46796875 6.49753906 14.0609375 6.87007812 14.671875 7.25390625 C16.1181343 8.16365 17.55958046 9.08103798 19 10 C16.45297384 11.27351308 15.5717055 10.80191925 12.875 10.0625 C12.15054688 9.86785156 11.42609375 9.67320313 10.6796875 9.47265625 C10.12539062 9.31667969 9.57109375 9.16070312 9 9 C9 8.34 9 7.68 9 7 C7.68 7 6.36 7 5 7 C4.731875 6.401875 4.46375 5.80375 4.1875 5.1875 C3.01506533 3.02775192 1.80630718 1.64209744 0 0 Z " fill="#676522" transform="translate(56,45)"/>
<path d="M0 0 C0 0.66 0 1.32 0 2 C-0.66 2 -1.32 2 -2 2 C-1.21869929 4.49552484 -1.21869929 4.49552484 0 7 C0.99 7.33 1.98 7.66 3 8 C3.33 8.99 3.66 9.98 4 11 C1.97954558 10.39816251 -0.02111039 9.72693904 -2 9 C-2.33 8.34 -2.66 7.68 -3 7 C-3.66 6.690625 -4.32 6.38125 -5 6.0625 C-7 5 -7 5 -8 2 C-5.09399739 0.74335022 -3.20395416 0 0 0 Z " fill="#EBCD1E" transform="translate(47,36)"/>
<path d="M0 0 C7.75 1.625 7.75 1.625 10 5 C10.99 5.66 11.98 6.32 13 7 C13.33 7.99 13.66 8.98 14 10 C9.33539866 8.39654329 4.88058403 6.05550658 1 3 C0.67 2.01 0.34 1.02 0 0 Z " fill="#8A8830" transform="translate(86,33)"/>
<path d="M0 0 C0.66 0 1.32 0 2 0 C2 12.21 2 24.42 2 37 C1.67 37 1.34 37 1 37 C0.97494385 36.01604248 0.9498877 35.03208496 0.92407227 34.01831055 C0.8298918 30.36729943 0.7296971 26.71647384 0.62768555 23.06567383 C0.58437695 21.48563985 0.54269894 19.90556031 0.50268555 18.32543945 C0.44488417 16.05405952 0.3812184 13.78290811 0.31640625 11.51171875 C0.29969376 10.80536789 0.28298126 10.09901703 0.26576233 9.3712616 C0.1740253 6.3335176 -0.03207686 3.90376942 -1 1 C-0.67 0.67 -0.34 0.34 0 0 Z " fill="#E9CD31" transform="translate(154,67)"/>
<path d="M0 0 C-2.93517601 1.65000386 -5.87352474 3.29427432 -8.8125 4.9375 C-9.64587891 5.40607422 -10.47925781 5.87464844 -11.33789062 6.35742188 C-12.54155273 7.0293457 -12.54155273 7.0293457 -13.76953125 7.71484375 C-14.50792236 8.12855225 -15.24631348 8.54226074 -16.00708008 8.96850586 C-18 10 -18 10 -21 11 C-20 8 -20 8 -17.0625 6.3125 C-14 5 -14 5 -12 5 C-12 4.01 -12 3.02 -12 2 C-10.56656 1.46809459 -9.12804633 0.94984742 -7.6875 0.4375 C-6.48673828 0.00244141 -6.48673828 0.00244141 -5.26171875 -0.44140625 C-3 -1 -3 -1 0 0 Z " fill="#C6BA4C" transform="translate(106,102)"/>
<path d="M0 0 C8.57142857 1.85714286 8.57142857 1.85714286 12 5 C11.34 5 10.68 5 10 5 C9.67 5.66 9.34 6.32 9 7 C5.625 6.3125 5.625 6.3125 2 5 C0.5625 2.375 0.5625 2.375 0 0 Z " fill="#EBCC21" transform="translate(85,88)"/>
<path d="M0 0 C2.31 0.66 4.62 1.32 7 2 C7.33 1.34 7.66 0.68 8 0 C11.465 1.485 11.465 1.485 15 3 C14 5 14 5 11.8125 5.75 C8.41560571 6.05194616 6.14413009 5.24302818 3 4 C3 3.34 3 2.68 3 2 C2.01 1.67 1.02 1.34 0 1 C0 0.67 0 0.34 0 0 Z " fill="#E4CD36" transform="translate(133,59)"/>
<path d="M0 0 C1.98 0.99 1.98 0.99 4 2 C4.04898438 3.25296875 4.09796875 4.5059375 4.1484375 5.796875 C4.22348583 7.44793821 4.29903277 9.09897881 4.375 10.75 C4.4059375 11.575 4.436875 12.4 4.46875 13.25 C4.50742188 14.04921875 4.54609375 14.8484375 4.5859375 15.671875 C4.6173584 16.4050293 4.6487793 17.13818359 4.68115234 17.89355469 C5.21149016 21.39719536 6.51279115 23.51279115 9 26 C4.125 25.125 4.125 25.125 3 24 C2.86721422 22.47492454 2.79670935 20.94430925 2.75390625 19.4140625 C2.70459961 18.01800781 2.70459961 18.01800781 2.65429688 16.59375 C2.59334392 14.62250564 2.53602252 12.65114548 2.48242188 10.6796875 C2.44826172 9.74640625 2.41410156 8.813125 2.37890625 7.8515625 C2.3538501 6.99385254 2.32879395 6.13614258 2.30297852 5.25244141 C2.13000401 2.71960899 2.13000401 2.71960899 0 0 Z " fill="#DECA4C" transform="translate(66,154)"/>
<path d="M0 0 C2.31 0 4.62 0 7 0 C7.33 0.66 7.66 1.32 8 2 C6.3811004 3.03048037 4.75467511 4.04914678 3.125 5.0625 C2.22007813 5.63097656 1.31515625 6.19945312 0.3828125 6.78515625 C-0.40351562 7.18605469 -1.18984375 7.58695313 -2 8 C-4 7 -4 7 -5 5 C-3.02 4.67 -1.04 4.34 1 4 C0.67 2.68 0.34 1.36 0 0 Z " fill="#A79E37" transform="translate(54,126)"/>
<path d="M0 0 C0.33 0.66 0.66 1.32 1 2 C-0.65 1.67 -2.3 1.34 -4 1 C-4 3.31 -4 5.62 -4 8 C-6.91517292 6.92598892 -8.77810176 6.22189824 -11 4 C-9.02 4 -7.04 4 -5 4 C-6.32 2.35 -7.64 0.7 -9 -1 C-5.20980534 -2.26339822 -3.62477616 -1.49719015 0 0 Z " fill="#978B29" transform="translate(66,145)"/>
<path d="M0 0 C5.75 0.75 5.75 0.75 8 3 C7.01 3.495 7.01 3.495 6 4 C6.99 4.66 7.98 5.32 9 6 C9 6.66 9 7.32 9 8 C7.02 8 5.04 8 3 8 C2.67 7.01 2.34 6.02 2 5 C1.34 4.67 0.68 4.34 0 4 C1.32 4 2.64 4 4 4 C3.04134491 1.66924071 3.04134491 1.66924071 0 0 Z " fill="#E1CB3A" transform="translate(52,141)"/>
<path d="M0 0 C2.875 0.6875 2.875 0.6875 6 2 C7.375 4.625 7.375 4.625 8 7 C6.02 6.34 4.04 5.68 2 5 C1.67 5.66 1.34 6.32 1 7 C0.34 6.67 -0.32 6.34 -1 6 C-0.67 4.02 -0.34 2.04 0 0 Z " fill="#BEB238" transform="translate(119,45)"/>
<path d="M0 0 C4.30764815 1.56641751 8.06171464 3.68336156 12 6 C12 6.66 12 7.32 12 8 C12.66 8.33 13.32 8.66 14 9 C9.25 8.125 9.25 8.125 7 7 C7 6.34 7 5.68 7 5 C5.35 5 3.7 5 2 5 C2 4.01 2 3.02 2 2 C1.01 1.67 0.02 1.34 -1 1 C-0.67 0.67 -0.34 0.34 0 0 Z " fill="#978E3D" transform="translate(85,179)"/>
<path d="M0 0 C3.9492568 0.55105909 7.34920174 1.38935371 11 3 C11 4.65 11 6.3 11 8 C10.01 8.495 10.01 8.495 9 9 C9 8.01 9 7.02 9 6 C7.68 6.33 6.36 6.66 5 7 C5 6.01 5 5.02 5 4 C2.5609294 1.79857668 2.5609294 1.79857668 0 0 Z " fill="#908525" transform="translate(106,83)"/>
<path d="M0 0 C4 0 4 0 5.5 1.4375 C5.995 1.953125 6.49 2.46875 7 3 C8.051875 3.2475 8.051875 3.2475 9.125 3.5 C9.74375 3.665 10.3625 3.83 11 4 C11.33 4.99 11.66 5.98 12 7 C8.04 6.67 4.08 6.34 0 6 C0.33 5.34 0.66 4.68 1 4 C1.66 4 2.32 4 3 4 C2.01 2.68 1.02 1.36 0 0 Z " fill="#EACE2F" transform="translate(74,80)"/>
<path d="M0 0 C4.39383706 1.59623144 8.28995807 3.78024333 12.3125 6.125 C12.95767578 6.49753906 13.60285156 6.87007813 14.26757812 7.25390625 C15.84675945 8.16632213 17.42361864 9.08275509 19 10 C16.50907189 11.24546405 15.58919267 10.7767578 13 10 C13 9.34 13 8.68 13 8 C11.35 7.67 9.7 7.34 8 7 C8 6.34 8 5.68 8 5 C7.05125 4.9175 6.1025 4.835 5.125 4.75 C2 4 2 4 0.625 1.9375 C0.41875 1.298125 0.2125 0.65875 0 0 Z " fill="#6B6626" transform="translate(87,63)"/>
<path d="M0 0 C0.66 0.33 1.32 0.66 2 1 C1.67 1.99 1.34 2.98 1 4 C-0.65 4.33 -2.3 4.66 -4 5 C-4 5.66 -4 6.32 -4 7 C-6.97 7.66 -9.94 8.32 -13 9 C-10.35065989 6.35065989 -8.10515144 4.67205065 -4.9375 2.75 C-4.05964844 2.20859375 -3.18179688 1.6671875 -2.27734375 1.109375 C-1.52582031 0.74328125 -0.77429687 0.3771875 0 0 Z " fill="#9A9239" transform="translate(56,25)"/>
<path d="M0 0 C2.97 0 5.94 0 9 0 C6.19921966 1.86718689 3.37274624 3.54204238 0.4375 5.1875 C-0.53316406 5.73792969 -1.50382812 6.28835937 -2.50390625 6.85546875 C-3.32761719 7.23316406 -4.15132812 7.61085938 -5 8 C-5.66 7.67 -6.32 7.34 -7 7 C-7 6.34 -7 5.68 -7 5 C-5.35 5 -3.7 5 -2 5 C-2 4.01 -2 3.02 -2 2 C-1.34 2 -0.68 2 0 2 C0 1.34 0 0.68 0 0 Z " fill="#7A772C" transform="translate(64,26)"/>
<path d="M0 0 C0.33 0 0.66 0 1 0 C1.02689216 1.47906892 1.04634621 2.95827483 1.0625 4.4375 C1.07410156 5.26121094 1.08570312 6.08492187 1.09765625 6.93359375 C1 9 1 9 0 10 C-4.82976947 9.6422393 -6.4833494 9.5166506 -10 6 C-7.03 6 -4.06 6 -1 6 C-0.67 4.02 -0.34 2.04 0 0 Z " fill="#A29B48" transform="translate(106,188)"/>
<path d="M0 0 C1.32 0.66 2.64 1.32 4 2 C3.34 2 2.68 2 2 2 C2 2.99 2 3.98 2 5 C3.32 5.66 4.64 6.32 6 7 C4.3125 7.6875 4.3125 7.6875 2 8 C-0.75 6.75 -0.75 6.75 -3 5 C-3 4.01 -3 3.02 -3 2 C-2.01 2 -1.02 2 0 2 C0 1.34 0 0.68 0 0 Z " fill="#BCB034" transform="translate(92,186)"/>
<path d="M0 0 C2.97 0.495 2.97 0.495 6 1 C6 1.66 6 2.32 6 3 C8.475 3.99 8.475 3.99 11 5 C11 5.99 11 6.98 11 8 C9.33333333 7.33333333 7.66666667 6.66666667 6 6 C4.63875 5.566875 4.63875 5.566875 3.25 5.125 C1 4 1 4 0.1875 1.875 C0.125625 1.25625 0.06375 0.6375 0 0 Z " fill="#EFCD26" transform="translate(94,71)"/>
<path d="M0 0 C1.0828125 0.495 1.0828125 0.495 2.1875 1 C5.01697427 2.00603529 7.02895466 2.16977402 10 2 C10 2.66 10 3.32 10 4 C11.65 3.67 13.3 3.34 15 3 C15 3.99 15 4.98 15 6 C13.24908981 5.91245449 11.49920449 5.80426627 9.75 5.6875 C8.77546875 5.62949219 7.8009375 5.57148437 6.796875 5.51171875 C3.72170503 4.9490829 2.23652952 4.15665346 0 2 C0 1.34 0 0.68 0 0 Z " fill="#E4CA39" transform="translate(116,81)"/>
<path d="M0 0 C0 0.66 0 1.32 0 2 C0.99 1.67 1.98 1.34 3 1 C3 1.66 3 2.32 3 3 C4.65 3.33 6.3 3.66 8 4 C6.75 5.5625 6.75 5.5625 5 7 C2.8125 6.6875 2.8125 6.6875 1 6 C1 5.34 1 4.68 1 4 C0.34 4 -0.32 4 -1 4 C-1 3.34 -1 2.68 -1 2 C-2.32 2.33 -3.64 2.66 -5 3 C-2.25 0 -2.25 0 0 0 Z " fill="#A5942A" transform="translate(85,142)"/>
<path d="M0 0 C-0.5775 0.2475 -1.155 0.495 -1.75 0.75 C-4.09449306 1.90996305 -4.09449306 1.90996305 -5.875 3.9375 C-8.37982473 6.36865342 -10.78354148 7.67146279 -14 9 C-14.66 8.67 -15.32 8.34 -16 8 C-14.865625 7.4225 -13.73125 6.845 -12.5625 6.25 C-9.62689703 4.64507365 -9.62689703 4.64507365 -8.0625 1.75 C-8.041875 1.1725 -8.02125 0.595 -8 0 C-4.71303767 -0.79953138 -3.28976808 -1.09658936 0 0 Z " fill="#837C30" transform="translate(85,114)"/>
<path d="M0 0 C0.66 0.33 1.32 0.66 2 1 C-1.26503938 4.94525591 -5.06518395 6.85708806 -10 8 C-10.66 7.67 -11.32 7.34 -12 7 C-10.37554381 6.01993141 -8.75041739 5.04097364 -7.125 4.0625 C-6.22007813 3.51722656 -5.31515625 2.97195312 -4.3828125 2.41015625 C-2.94798364 1.56101983 -1.49124552 0.74562276 0 0 Z " fill="#7B792F" transform="translate(90,101)"/>
<path d="M0 0 C-0.99 0.33 -1.98 0.66 -3 1 C-3 1.66 -3 2.32 -3 3 C-2.21625 3.28875 -1.4325 3.5775 -0.625 3.875 C2 5 2 5 4 7 C3.01 7.33 2.02 7.66 1 8 C1 7.34 1 6.68 1 6 C0.05125 5.938125 -0.8975 5.87625 -1.875 5.8125 C-3.421875 5.4103125 -3.421875 5.4103125 -5 5 C-6.375 2.4375 -6.375 2.4375 -7 0 C-2.25 -1.125 -2.25 -1.125 0 0 Z " fill="#8B812A" transform="translate(52,38)"/>
<path d="M0 0 C2.475 0.99 2.475 0.99 5 2 C5 3.65 5 5.3 5 7 C1.75791433 6.64950425 0.38472296 6.43778819 -1.8125 3.9375 C-2.4003125 2.9784375 -2.4003125 2.9784375 -3 2 C-2.01 2 -1.02 2 0 2 C0 1.34 0 0.68 0 0 Z " fill="#DFC83B" transform="translate(99,36)"/>
<path d="M0 0 C4.3890815 0.51035831 7.33708062 1.52214277 11 4 C10.67 5.32 10.34 6.64 10 8 C6.14547879 6.0727394 2.95389921 3.10936759 0 0 Z " fill="#827B2F" transform="translate(136,63)"/>
<path d="M0 0 C4.46840411 0.49648935 5.68987756 0.68987756 9 4 C4.71 4 0.42 4 -4 4 C-4.33 3.01 -4.66 2.02 -5 1 C-2.525 1.495 -2.525 1.495 0 2 C0 1.34 0 0.68 0 0 Z " fill="#DECA40" transform="translate(50,44)"/>
<path d="M0 0 C5.37305699 -0.44041451 5.37305699 -0.44041451 8 0 C10 2.5 10 2.5 11 5 C10.01 5.495 10.01 5.495 9 6 C6.8359375 5.00390625 6.8359375 5.00390625 4.375 3.5625 C3.55773437 3.08941406 2.74046875 2.61632813 1.8984375 2.12890625 C1.27195312 1.75636719 0.64546875 1.38382813 0 1 C0 0.67 0 0.34 0 0 Z " fill="#83802B" transform="translate(100,43)"/>
<path d="M0 0 C0.556875 0.28875 1.11375 0.5775 1.6875 0.875 C4.01411753 2.05907564 4.01411753 2.05907564 6.625 2.9375 C9 4 9 4 11 7 C6.24518354 6.42365861 3.02951788 4.44931479 -1 2 C-0.67 1.34 -0.34 0.68 0 0 Z " fill="#8E8C37" transform="translate(66,58)"/>
<path d="M0 0 C0.66 0.33 1.32 0.66 2 1 C1.67 1.66 1.34 2.32 1 3 C2.3303125 3.4021875 2.3303125 3.4021875 3.6875 3.8125 C6.76877548 4.91710819 9.26221405 6.22849144 12 8 C10 9 10 9 6.875 8.0625 C5.92625 7.711875 4.9775 7.36125 4 7 C4 6.34 4 5.68 4 5 C2.02 4.34 0.04 3.68 -2 3 C-2 2.34 -2 1.68 -2 1 C-1.34 0.67 -0.68 0.34 0 0 Z " fill="#676422" transform="translate(48,134)"/>
<path d="M0 0 C0 2.97 0 5.94 0 9 C-0.33 9 -0.66 9 -1 9 C-1.33 7.02 -1.66 5.04 -2 3 C-3.98 3.33 -5.96 3.66 -8 4 C-8 3.01 -8 2.02 -8 1 C-5.07175348 0.02391783 -3.04386724 -0.08226668 0 0 Z " fill="#8D8A2F" transform="translate(101,142)"/>
<path d="M0 0 C0.66 0.33 1.32 0.66 2 1 C1.67 1.99 1.34 2.98 1 4 C2.32 4.33 3.64 4.66 5 5 C3.02 5.99 1.04 6.98 -1 8 C-0.67 6.68 -0.34 5.36 0 4 C-1.65 4 -3.3 4 -5 4 C-4.67 3.34 -4.34 2.68 -4 2 C-3.01 2 -2.02 2 -1 2 C-0.67 1.34 -0.34 0.68 0 0 Z " fill="#E0C743" transform="translate(46,128)"/>
<path d="M0 0 C2.375 0.25 2.375 0.25 5 1 C6.3125 3.0625 6.3125 3.0625 7 5 C0.9453125 5.1953125 0.9453125 5.1953125 -1 5 C-1.66 4.34 -2.32 3.68 -3 3 C-1.68 3 -0.36 3 1 3 C0.67 2.01 0.34 1.02 0 0 Z " fill="#CAB325" transform="translate(74,177)"/>
<path d="M0 0 C0.33 0.66 0.66 1.32 1 2 C0 4 0 4 -1.84765625 4.6328125 C-2.94400391 4.87644531 -2.94400391 4.87644531 -4.0625 5.125 C-4.79597656 5.29257813 -5.52945313 5.46015625 -6.28515625 5.6328125 C-6.85105469 5.75398438 -7.41695312 5.87515625 -8 6 C-7.375 4.125 -7.375 4.125 -6 2 C-2.875 0.75 -2.875 0.75 0 0 Z " fill="#B0A83D" transform="translate(146,70)"/>
<path d="M0 0 C6.14587738 0.2410148 6.14587738 0.2410148 8.578125 2.40234375 C9.78844931 3.88046971 10.90220903 5.43647953 12 7 C7.69235185 5.43358249 3.93828536 3.31663844 0 1 C0 0.67 0 0.34 0 0 Z " fill="#CFC14C" transform="translate(77,65)"/>
<path d="M0 0 C1.98 0 3.96 0 6 0 C6.33 0.99 6.66 1.98 7 3 C7.66 3 8.32 3 9 3 C9.33 3.99 9.66 4.98 10 6 C6.40992874 4.66654496 3.20429093 3.1056769 0 1 C0 0.67 0 0.34 0 0 Z " fill="#817B2F" transform="translate(46,48)"/>
<path d="M0 0 C3.59391114 1.33488128 6.75490696 2.96022723 10 5 C8 6 8 6 5 5.125 C2 4 2 4 0 3 C0 2.01 0 1.02 0 0 Z " fill="#77722C" transform="translate(88,85)"/>
<path d="M0 0 C-2.52956528 3.0916909 -5.22454612 3.90931332 -9 5 C-9 4.01 -9 3.02 -9 2 C-5.5647952 -0.29013653 -4.014669 -0.17842973 0 0 Z " fill="#827B34" transform="translate(140,82)"/>
<path d="M0 0 C4.50802601 1.25805377 7.4912812 2.90407165 11 6 C10.01 6.33 9.02 6.66 8 7 C8 6.34 8 5.68 8 5 C7.05125 4.9175 6.1025 4.835 5.125 4.75 C2 4 2 4 0.625 1.9375 C0.41875 1.298125 0.2125 0.65875 0 0 Z " fill="#7F7E2D" transform="translate(77,79)"/>
<path d="M0 0 C2.31 0.66 4.62 1.32 7 2 C7 3.32 7 4.64 7 6 C4.0625 5.25 4.0625 5.25 1 4 C0.125 1.875 0.125 1.875 0 0 Z " fill="#E8CD28" transform="translate(109,80)"/>
<path d="M0 0 C7.45937249 0.61142397 7.45937249 0.61142397 10 2.4375 C11 4 11 4 11 6 C6.95743617 4.77782954 3.50711041 3.37245704 0 1 C0 0.67 0 0.34 0 0 Z " fill="#73732B" transform="translate(125,57)"/>
<path d="M0 0 C0 0.99 0 1.98 0 3 C-1.98 3.33 -3.96 3.66 -6 4 C-6 4.66 -6 5.32 -6 6 C-6.66 6 -7.32 6 -8 6 C-8 4.68 -8 3.36 -8 2 C-4.91190305 0.23537317 -3.76687864 0 0 0 Z " fill="#EACC24" transform="translate(61,123)"/>
<path d="M0 0 C1.98 0 3.96 0 6 0 C6.66 1.65 7.32 3.3 8 5 C6.02 5.99 6.02 5.99 4 7 C4.33 5.68 4.66 4.36 5 3 C2.525 2.01 2.525 2.01 0 1 C0 0.67 0 0.34 0 0 Z " fill="#675F1F" transform="translate(88,94)"/>
<path d="M0 0 C0.66 0 1.32 0 2 0 C0.52440331 4.42679007 -1.90057368 4.91432696 -6 7 C-6.66 7 -7.32 7 -8 7 C-7 4 -7 4 -4 2 C-2.68 2 -1.36 2 0 2 C0 1.34 0 0.68 0 0 Z " fill="#D7C64F" transform="translate(75,116)"/>
<path d="M0 0 C-5.14285714 4.42857143 -5.14285714 4.42857143 -9 5 C-9 3.68 -9 2.36 -9 1 C-5.92677456 0.08941469 -3.19902639 -0.08886184 0 0 Z " fill="#938731" transform="translate(145,116)"/>
<path d="M0 0 C0.99 0.33 1.98 0.66 3 1 C3 1.66 3 2.32 3 3 C4.32 2.67 5.64 2.34 7 2 C6.67 2.99 6.34 3.98 6 5 C4.68 5 3.36 5 2 5 C2 4.34 2 3.68 2 3 C0.68 3 -0.64 3 -2 3 C-2 2.34 -2 1.68 -2 1 C-1.34 0.67 -0.68 0.34 0 0 Z " fill="#DECB45" transform="translate(139,111)"/>
<path d="M0 0 C1.98 0 3.96 0 6 0 C2.98112756 3.48331435 0.43090471 4.79157144 -4 6 C-3.525625 5.38125 -3.05125 4.7625 -2.5625 4.125 C-0.97582559 2.09294454 -0.97582559 2.09294454 0 0 Z " fill="#747125" transform="translate(125,87)"/>
<path d="M0 0 C4.95696581 1.23924145 7.11658466 2.78577758 10 7 C8.35 7 6.7 7 5 7 C4.731875 6.401875 4.46375 5.80375 4.1875 5.1875 C3.01506533 3.02775192 1.80630718 1.64209744 0 0 Z " fill="#888331" transform="translate(56,45)"/>
<path d="M0 0 C1.65 0 3.3 0 5 0 C5 0.99 5 1.98 5 3 C3.02 3.66 1.04 4.32 -1 5 C-0.67 3.35 -0.34 1.7 0 0 Z " fill="#93902E" transform="translate(120,126)"/>
<path d="M0 0 C-0.33 1.32 -0.66 2.64 -1 4 C-3.64 4.33 -6.28 4.66 -9 5 C-6.45523312 2.20075644 -3.92372883 0 0 0 Z " fill="#777B29" transform="translate(137,112)"/>
<path d="M0 0 C1.32 0 2.64 0 4 0 C6.25 2.5 6.25 2.5 8 5 C4.40142046 5 2.90548882 4.04169485 0 2 C0 1.34 0 0.68 0 0 Z " fill="#988F3B" transform="translate(47,143)"/>
<path d="M0 0 C1.32 0.33 2.64 0.66 4 1 C-2.4 5.06153846 -2.4 5.06153846 -5.4375 4.75 C-5.953125 4.5025 -6.46875 4.255 -7 4 C-6 3 -6 3 -3.4375 2.9375 C-2.2309375 2.9684375 -2.2309375 2.9684375 -1 3 C-0.67 2.01 -0.34 1.02 0 0 Z " fill="#DEC948" transform="translate(113,126)"/>
<path d="M0 0 C0.804375 0.4640625 0.804375 0.4640625 1.625 0.9375 C4.3984957 2.17827439 7.00042837 2.5909675 10 3 C10 3.99 10 4.98 10 6 C6.51102321 5.35389319 3.93230451 3.98128683 1 2 C0.67 1.34 0.34 0.68 0 0 Z " fill="#E9CB23" transform="translate(83,65)"/>
<path d="M0 0 C3.45925163 1.2491742 6.14693203 2.67527795 9 5 C7.68 5.33 6.36 5.66 5 6 C5 5.34 5 4.68 5 4 C4.360625 3.896875 3.72125 3.79375 3.0625 3.6875 C2.381875 3.460625 1.70125 3.23375 1 3 C0.67 2.01 0.34 1.02 0 0 Z " fill="#ACA644" transform="translate(148,62)"/>
<path d="M0 0 C2.8992226 0.46761655 3.86675182 0.86675182 6 3 C4.35 3.66 2.7 4.32 1 5 C0.34 3.68 -0.32 2.36 -1 1 C-0.67 0.67 -0.34 0.34 0 0 Z " fill="#E9CE38" transform="translate(58,25)"/>
<path d="M0 0 C3.465 1.485 3.465 1.485 7 3 C7 3.66 7 4.32 7 5 C4.66666667 5 2.33333333 5 0 5 C0 3.35 0 1.7 0 0 Z " fill="#E7CB31" transform="translate(45,136)"/>
<path d="M0 0 C1.98 0 3.96 0 6 0 C6.33 1.32 6.66 2.64 7 4 C5.68 4 4.36 4 3 4 C1.25 2 1.25 2 0 0 Z " fill="#EBCB22" transform="translate(92,34)"/>
<path d="M0 0 C0.99 0.99 1.98 1.98 3 3 C-0.3 3 -3.6 3 -7 3 C-7 2.34 -7 1.68 -7 1 C-4.45132831 -0.27433584 -2.82594567 -0.27570202 0 0 Z " fill="#CFC044" transform="translate(74,24)"/>
<path d="M0 0 C0.66 0.33 1.32 0.66 2 1 C-1.32307692 4.93846154 -1.32307692 4.93846154 -4.75 5.25 C-5.4925 5.1675 -6.235 5.085 -7 5 C-4.88437775 2.67281553 -2.94982021 1.14186589 0 0 Z " fill="#78732C" transform="translate(137,74)"/>
<path d="M0 0 C1.9375 0.3125 1.9375 0.3125 4 1 C4.33 1.99 4.66 2.98 5 4 C3.68 4.33 2.36 4.66 1 5 C0.67 3.35 0.34 1.7 0 0 Z " fill="#ECCE39" transform="translate(128,52)"/>
<path d="M0 0 C-1.8125 2 -1.8125 2 -4 4 C-4.99 4 -5.98 4 -7 4 C-7 3.01 -7 2.02 -7 1 C-4.53721199 -0.231394 -2.7204945 -0.07159196 0 0 Z " fill="#E9CC1E" transform="translate(115,130)"/>
<path d="M0 0 C0.99 0.66 1.98 1.32 3 2 C2.34 2 1.68 2 1 2 C0.67 2.66 0.34 3.32 0 4 C-2.31 3.34 -4.62 2.68 -7 2 C-6.401875 1.855625 -5.80375 1.71125 -5.1875 1.5625 C-3.43849596 1.1127561 -1.71322977 0.57107659 0 0 Z " fill="#E1CE3A" transform="translate(94,91)"/>
<path d="M0 0 C1.32 0.33 2.64 0.66 4 1 C2.35 2.32 0.7 3.64 -1 5 C-1.66 4.67 -2.32 4.34 -3 4 C-3 3.34 -3 2.68 -3 2 C-2.01 2 -1.02 2 0 2 C0 1.34 0 0.68 0 0 Z " fill="#88872F" transform="translate(117,92)"/>
<path d="M0 0 C2.97 0 5.94 0 9 0 C5.81237635 2.12508244 3.73487777 2.5020163 0 3 C0 2.01 0 1.02 0 0 Z " fill="#0749D0" transform="translate(64,26)"/>
</svg>
